WorkSans-Regular.ufo
<glyph name="numbersign" format="2">
  <advance width="640"/>
  <unicode hex="0023"/>
  <outline>
    <contour>
      <point x="457" y="660" type="line"/>
      <point x="347" y="0" type="line"/>
      <point x="415" y="0" type="line"/>
      <point x="525" y="660" type="line"/>
    </contour>
    <contour>
      <point x="20" y="248" type="line"/>
      <point x="20" y="187" type="line"/>
      <point x="575" y="187" type="line"/>
      <point x="575" y="248" type="line"/>
    </contour>
    <contour>
      <point x="223" y="660" type="line"/>
      <point x="113" y="0" type="line"/>
      <point x="181" y="0" type="line"/>
      <point x="291" y="660" type="line"/>
    </contour>
    <contour>
      <point x="64" y="478" type="line"/>
      <point x="64" y="417" type="line"/>
      <point x="619" y="417" type="line"/>
      <point x="619" y="478" type="line"/>
    </contour>
  </outline>
</glyph>
<glyph name="percent" format="2">
  <advance width="856"/>
  <unicode hex="0025"/>
  <outline>
    <contour>
      <point x="498" y="172" type="curve" smooth="yes"/>
      <point x="498" y="62"/>
      <point x="560" y="-10"/>
      <point x="657" y="-10" type="curve" smooth="yes"/>
      <point x="754" y="-10"/>
      <point x="816" y="62"/>
      <point x="816" y="172" type="curve" smooth="yes"/>
      <point x="816" y="282"/>
      <point x="754" y="354"/>
      <point x="657" y="354" type="curve" smooth="yes"/>
      <point x="560" y="354"/>
      <point x="498" y="282"/>
    </contour>
    <contour>
      <point x="40" y="488" type="curve" smooth="yes"/>
      <point x="40" y="378"/>
      <point x="102" y="306"/>
      <point x="199" y="306" type="curve" smooth="yes"/>
      <point x="296" y="306"/>
      <point x="358" y="378"/>
      <point x="358" y="488" type="curve" smooth="yes"/>
      <point x="358" y="598"/>
      <point x="296" y="670"/>
      <point x="199" y="670" type="curve" smooth="yes"/>
      <point x="102" y="670"/>
      <point x="40" y="598"/>
    </contour>
    <contour>
      <point x="287" y="488" type="curve" smooth="yes"/>
      <point x="287" y="413"/>
      <point x="256" y="369"/>
      <point x="199" y="369" type="curve" smooth="yes"/>
      <point x="142" y="369"/>
      <point x="111" y="413"/>
      <point x="111" y="488" type="curve" smooth="yes"/>
      <point x="111" y="563"/>
      <point x="142" y="607"/>
      <point x="199" y="607" type="curve" smooth="yes"/>
      <point x="256" y="607"/>
      <point x="287" y="563"/>
    </contour>
    <contour>
      <point x="745" y="172" type="curve" smooth="yes"/>
      <point x="745" y="97"/>
      <point x="714" y="53"/>
      <point x="657" y="53" type="curve" smooth="yes"/>
      <point x="600" y="53"/>
      <point x="569" y="97"/>
      <point x="569" y="172" type="curve" smooth="yes"/>
      <point x="569" y="247"/>
      <point x="600" y="291"/>
      <point x="657" y="291" type="curve" smooth="yes"/>
      <point x="714" y="291"/>
      <point x="745" y="247"/>
    </contour>
    <contour>
      <point x="256" y="0" type="line"/>
      <point x="676" y="660" type="line"/>
      <point x="600" y="660" type="line"/>
      <point x="180" y="0" type="line"/>
    </contour>
  </outline>
</glyph>
<glyph name="hyphen" format="2">
  <advance width="510"/>
  <unicode hex="002D"/>
  <outline>
    <contour>
      <point x="90" y="303" type="line"/>
      <point x="90" y="220" type="line"/>
      <point x="420" y="220" type="line"/>
      <point x="420" y="303" type="line"/>
    </contour>
  </outline>
</glyph>
<glyph name="period" format="2">
  <advance width="266"/>
  <unicode hex="002E"/>
  <anchor x="68" y="55" name="_center"/>
  <outline>
    <contour>
      <point x="68" y="55" type="curve" smooth="yes"/>
      <point x="68" y="16"/>
      <point x="94" y="-10"/>
      <point x="133" y="-10" type="curve" smooth="yes"/>
      <point x="172" y="-10"/>
      <point x="198" y="16"/>
      <point x="198" y="55" type="curve" smooth="yes"/>
      <point x="198" y="94"/>
      <point x="172" y="120"/>
      <point x="133" y="120" type="curve" smooth="yes"/>
      <point x="94" y="120"/>
      <point x="68" y="94"/>
    </contour>
  </outline>
</glyph>
<glyph name="slash" format="2">
  <advance width="438"/>
  <unicode hex="002F"/>
  <outline>
    <contour>
      <point x="334" y="730" type="line"/>
      <point x="28" y="-70" type="line"/>
      <point x="103" y="-70" type="line"/>
      <point x="409" y="730" type="line"/>
    </contour>
  </outline>
</glyph>
<glyph name="zero" format="2">
  <advance width="622"/>
  <unicode hex="0030"/>
  <outline>
    <contour>
      <point x="557" y="330" type="curve" smooth="yes"/>
      <point x="557" y="551"/>
      <point x="471" y="670"/>
      <point x="311" y="670" type="curve" smooth="yes"/>
      <point x="151" y="670"/>
      <point x="65" y="551"/>
      <point x="65" y="330" type="curve" smooth="yes"/>
      <point x="65" y="109"/>
      <point x="151" y="-10"/>
      <point x="311" y="-10" type="curve" smooth="yes"/>
      <point x="471" y="-10"/>
      <point x="557" y="109"/>
    </contour>
    <contour>
      <point x="148" y="330" type="curve" smooth="yes"/>
      <point x="148" y="504"/>
      <point x="205" y="598"/>
      <point x="311" y="598" type="curve" smooth="yes"/>
      <point x="417" y="598"/>
      <point x="474" y="504"/>
      <point x="474" y="330" type="curve" smooth="yes"/>
      <point x="474" y="156"/>
      <point x="417" y="62"/>
      <point x="311" y="62" type="curve" smooth="yes"/>
      <point x="205" y="62"/>
      <point x="148" y="156"/>
    </contour>
  </outline>
</glyph>
<glyph name="one" format="2">
  <advance width="409"/>
  <unicode hex="0031"/>
  <outline>
    <contour>
      <point x="307" y="660" type="line"/>
      <point x="237" y="660" type="line"/>
      <point x="231" y="609"/>
      <point x="227" y="535"/>
      <point x="227" y="484" type="curve" smooth="yes"/>
      <point x="227" y="0" type="line"/>
      <point x="307" y="0" type="line"/>
      <point x="307" y="506" type="line"/>
    </contour>
    <contour>
      <point x="282" y="634" type="curve"/>
      <point x="237" y="660" type="line"/>
      <point x="200" y="609"/>
      <point x="84" y="547"/>
      <point x="37" y="541" type="curve"/>
      <point x="58" y="468" type="line"/>
      <point x="151" y="490"/>
      <point x="247" y="555"/>
    </contour>
  </outline>
</glyph>
<glyph name="two" format="2">
  <advance width="583"/>
  <unicode hex="0032"/>
  <outline>
    <contour>
      <point x="518" y="0" type="line"/>
      <point x="518" y="75" type="line"/>
      <point x="287" y="75" type="line" smooth="yes"/>
      <point x="267" y="75"/>
      <point x="210" y="73"/>
      <point x="188" y="72" type="curve"/>
      <point x="188" y="73" type="line"/>
      <point x="424" y="230"/>
      <point x="504" y="339"/>
      <point x="504" y="463" type="curve" smooth="yes"/>
      <point x="504" y="585"/>
      <point x="418" y="670"/>
      <point x="283" y="670" type="curve" smooth="yes"/>
      <point x="149" y="670"/>
      <point x="70" y="589"/>
      <point x="53" y="474" type="curve"/>
      <point x="123" y="432" type="line"/>
      <point x="132" y="531"/>
      <point x="189" y="595"/>
      <point x="280" y="595" type="curve" smooth="yes"/>
      <point x="366" y="595"/>
      <point x="420" y="541"/>
      <point x="420" y="463" type="curve" smooth="yes"/>
      <point x="420" y="346"/>
      <point x="338" y="259"/>
      <point x="74" y="65" type="curve"/>
      <point x="74" y="0" type="line"/>
    </contour>
  </outline>
</glyph>
<glyph name="three" format="2">
  <advance width="583"/>
  <unicode hex="0033"/>
  <outline>
    <contour>
      <point x="77" y="529" type="curve"/>
      <point x="152" y="494" type="line"/>
      <point x="168" y="555"/>
      <point x="212" y="595"/>
      <point x="292" y="595" type="curve" smooth="yes"/>
      <point x="371" y="595"/>
      <point x="415" y="556"/>
      <point x="414" y="479" type="curve" smooth="yes"/>
      <point x="413" y="405"/>
      <point x="366" y="370"/>
      <point x="277" y="370" type="curve" smooth="yes"/>
      <point x="251" y="370" type="line"/>
      <point x="251" y="295" type="line"/>
      <point x="277" y="295" type="line" smooth="yes"/>
      <point x="378" y="295"/>
      <point x="428" y="268"/>
      <point x="429" y="187" type="curve" smooth="yes"/>
      <point x="430" y="117"/>
      <point x="379" y="65"/>
      <point x="286" y="65" type="curve" smooth="yes"/>
      <point x="188" y="65"/>
      <point x="150" y="113"/>
      <point x="126" y="187" type="curve"/>
      <point x="52" y="148" type="line"/>
      <point x="93" y="45"/>
      <point x="168" y="-10"/>
      <point x="280" y="-10" type="curve" smooth="yes"/>
      <point x="421" y="-10"/>
      <point x="512" y="70"/>
      <point x="512" y="177" type="curve" smooth="yes"/>
      <point x="512" y="261"/>
      <point x="460" y="333"/>
      <point x="373" y="333" type="curve"/>
      <point x="373" y="335" type="line"/>
      <point x="439" y="335"/>
      <point x="497" y="404"/>
      <point x="497" y="498" type="curve" smooth="yes"/>
      <point x="497" y="589"/>
      <point x="426" y="670"/>
      <point x="291" y="670" type="curve" smooth="yes"/>
      <point x="190" y="670"/>
      <point x="109" y="615"/>
    </contour>
  </outline>
</glyph>
<glyph name="less" format="2">
  <advance width="604"/>
  <unicode hex="003C"/>
  <outline>
    <contour>
      <point x="547" y="488" type="line"/>
      <point x="547" y="571" type="line"/>
      <point x="71" y="346" type="line"/>
      <point x="71" y="270" type="line"/>
    </contour>
    <contour>
      <point x="71" y="329" type="line"/>
      <point x="71" y="253" type="line"/>
      <point x="547" y="28" type="line"/>
      <point x="547" y="111" type="line"/>
    </contour>
  </outline>
</glyph>
<glyph name="A" format="2">
  <advance width="660"/>
  <unicode hex="0041"/>
  <anchor x="612" y="0" name="bottomC"/>
  <anchor x="330" y="660" name="top"/>
  <anchor x="634" y="0" name="ogonek"/>
  <anchor x="330" y="0" name="bottom"/>
  <outline>
    <contour>
      <point x="110" y="0" type="line"/>
      <point x="299" y="495" type="line"/>
      <point x="328" y="584" type="line"/>
      <point x="330" y="584" type="line"/>
      <point x="361" y="492" type="line"/>
      <point x="549" y="0" type="line"/>
      <point x="634" y="0" type="line"/>
      <point x="378" y="660" type="line"/>
      <point x="283" y="660" type="line"/>
      <point x="26" y="0" type="line"/>
    </contour>
    <contour>
      <point x="505" y="183" type="line"/>
      <point x="505" y="258" type="line"/>
      <point x="152" y="258" type="line"/>
      <point x="152" y="183" type="line"/>
    </contour>
  </outline>
</glyph>
<glyph name="B" format="2">
  <advance width="653"/>
  <unicode hex="0042"/>
  <anchor x="280" y="0" name="bottomC"/>
  <anchor x="307" y="660" name="top"/>
  <anchor x="342" y="0" name="ogonek"/>
  <anchor x="307" y="0" name="bottom"/>
  <outline>
    <contour>
      <point x="342" y="0" type="line" smooth="yes"/>
      <point x="498" y="0"/>
      <point x="585" y="73"/>
      <point x="585" y="185" type="curve" smooth="yes"/>
      <point x="585" y="257"/>
      <point x="535" y="320"/>
      <point x="457" y="335" type="curve"/>
      <point x="457" y="336" type="line"/>
      <point x="528" y="350"/>
      <point x="568" y="411"/>
      <point x="568" y="478" type="curve" smooth="yes"/>
      <point x="568" y="590"/>
      <point x="499" y="660"/>
      <point x="343" y="660" type="curve" smooth="yes"/>
      <point x="108" y="660" type="line"/>
      <point x="108" y="0" type="line"/>
    </contour>
    <contour>
      <point x="188" y="295" type="line"/>
      <point x="361" y="295" type="line" smooth="yes"/>
      <point x="455" y="295"/>
      <point x="501" y="255"/>
      <point x="501" y="185" type="curve" smooth="yes"/>
      <point x="501" y="115"/>
      <point x="455" y="75"/>
      <point x="361" y="75" type="curve" smooth="yes"/>
      <point x="188" y="75" type="line"/>
    </contour>
    <contour>
      <point x="188" y="585" type="line"/>
      <point x="344" y="585" type="line" smooth="yes"/>
      <point x="438" y="585"/>
      <point x="484" y="550"/>
      <point x="484" y="478" type="curve" smooth="yes"/>
      <point x="484" y="405"/>
      <point x="438" y="370"/>
      <point x="344" y="370" type="curve" smooth="yes"/>
      <point x="188" y="370" type="line"/>
    </contour>
  </outline>
</glyph>
<glyph name="E" format="2">
  <advance width="638"/>
  <unicode hex="0045"/>
  <anchor x="339" y="0" name="bottomC"/>
  <anchor x="339" y="660" name="top"/>
  <anchor x="586" y="0" name="ogonek"/>
  <anchor x="339" y="0" name="bottom"/>
  <outline>
    <contour>
      <point x="108" y="660" type="line"/>
      <point x="108" y="0" type="line"/>
      <point x="188" y="0" type="line"/>
      <point x="188" y="660" type="line"/>
    </contour>
    <contour>
      <point x="150" y="75" type="line"/>
      <point x="150" y="0" type="line"/>
      <point x="586" y="0" type="line"/>
      <point x="586" y="75" type="line"/>
    </contour>
    <contour>
      <point x="150" y="372" type="line"/>
      <point x="150" y="297" type="line"/>
      <point x="486" y="297" type="line"/>
      <point x="486" y="372" type="line"/>
    </contour>
    <contour>
      <point x="150" y="660" type="line"/>
      <point x="150" y="585" type="line"/>
      <point x="571" y="585" type="line"/>
      <point x="571" y="660" type="line"/>
    </contour>
  </outline>
</glyph>
<glyph name="F" format="2">
  <advance width="610"/>
  <unicode hex="0046"/>
  <anchor x="168" y="0" name="bottomC"/>
  <anchor x="335" y="660" name="top"/>
  <anchor x="188" y="0" name="ogonek"/>
  <anchor x="148" y="0" name="bottom"/>
  <outline>
    <contour>
      <point x="108" y="660" type="line"/>
      <point x="108" y="0" type="line"/>
      <point x="188" y="0" type="line"/>
      <point x="188" y="660" type="line"/>
    </contour>
    <contour>
      <point x="150" y="372" type="line"/>
      <point x="150" y="297" type="line"/>
      <point x="486" y="297" type="line"/>
      <point x="486" y="372" type="line"/>
    </contour>
    <contour>
      <point x="150" y="660" type="line"/>
      <point x="150" y="585" type="line"/>
      <point x="570" y="585" type="line"/>
      <point x="570" y="660" type="line"/>
    </contour>
  </outline>
</glyph>
<glyph name="L" format="2">
  <advance width="598"/>
  <unicode hex="004C"/>
  <anchor x="464" y="342" name="center"/>
  <anchor x="362" y="0" name="bottomC"/>
  <anchor x="148" y="660" name="top"/>
  <anchor x="362" y="0" name="bottom"/>
  <anchor x="300" y="700" name="topright"/>
  <anchor x="566" y="0" name="ogonek"/>
  <outline>
    <contour>
      <point x="108" y="660" type="line"/>
      <point x="108" y="0" type="line"/>
      <point x="188" y="0" type="line"/>
      <point x="188" y="660" type="line"/>
    </contour>
    <contour>
      <point x="150" y="75" type="line"/>
      <point x="150" y="0" type="line"/>
      <point x="566" y="0" type="line"/>
      <point x="566" y="75" type="line"/>
    </contour>
  </outline>
</glyph>
<glyph name="N" format="2">
  <advance width="734"/>
  <unicode hex="004E"/>
  <anchor x="582" y="0" name="bottomC"/>
  <anchor x="371" y="660" name="top"/>
  <anchor x="626" y="0" name="ogonek"/>
  <anchor x="397" y="0" name="bottom"/>
  <outline>
    <contour>
      <point x="550" y="660" type="line"/>
      <point x="550" y="194" type="line"/>
      <point x="554" y="88" type="line"/>
      <point x="553" y="88" type="line"/>
      <point x="482" y="220" type="line"/>
      <point x="207" y="660" type="line"/>
      <point x="108" y="660" type="line"/>
      <point x="108" y="0" type="line"/>
      <point x="184" y="0" type="line"/>
      <point x="184" y="466" type="line"/>
      <point x="180" y="572" type="line"/>
      <point x="181" y="572" type="line"/>
      <point x="251" y="442" type="line"/>
      <point x="527" y="0" type="line"/>
      <point x="626" y="0" type="line"/>
      <point x="626" y="660" type="line"/>
    </contour>
  </outline>
</glyph>
<glyph name="P" format="2">
  <advance width="610"/>
  <unicode hex="0050"/>
  <anchor x="148" y="0" name="bottomC"/>
  <anchor x="315" y="660" name="top"/>
  <anchor x="188" y="0" name="ogonek"/>
  <anchor x="148" y="0" name="bottom"/>
  <outline>
    <contour>
      <point x="148" y="660" type="line"/>
      <point x="148" y="585" type="line"/>
      <point x="329" y="585" type="line" smooth="yes"/>
      <point x="433" y="585"/>
      <point x="479" y="541"/>
      <point x="479" y="459" type="curve" smooth="yes"/>
      <point x="479" y="377"/>
      <point x="433" y="333"/>
      <point x="329" y="333" type="curve" smooth="yes"/>
      <point x="148" y="333" type="line"/>
      <point x="148" y="258" type="line"/>
      <point x="341" y="258" type="line" smooth="yes"/>
      <point x="474" y="258"/>
      <point x="563" y="335"/>
      <point x="563" y="459" type="curve" smooth="yes"/>
      <point x="563" y="583"/>
      <point x="474" y="660"/>
      <point x="341" y="660" type="curve" smooth="yes"/>
    </contour>
    <contour>
      <point x="108" y="660" type="line"/>
      <point x="108" y="0" type="line"/>
      <point x="188" y="0" type="line"/>
      <point x="188" y="660" type="line"/>
    </contour>
  </outline>
</glyph>
<glyph name="W" format="2">
  <advance width="961"/>
  <unicode hex="0057"/>
  <anchor x="699" y="0" name="bottomC"/>
  <anchor x="481" y="660" name="top"/>
  <anchor x="731" y="0" name="ogonek"/>
  <anchor x="481" y="0" name="bottom"/>
  <outline>
    <contour>
      <point x="480" y="577" type="line"/>
      <point x="481" y="577" type="line"/>
      <point x="515" y="428" type="line"/>
      <point x="632" y="0" type="line"/>
      <point x="731" y="0" type="line"/>
      <point x="925" y="660" type="line"/>
      <point x="844" y="660" type="line"/>
      <point x="684" y="61" type="line"/>
      <point x="528" y="660" type="line"/>
      <point x="437" y="660" type="line"/>
      <point x="281" y="63" type="line"/>
      <point x="122" y="660" type="line"/>
      <point x="36" y="660" type="line"/>
      <point x="231" y="0" type="line"/>
      <point x="330" y="0" type="line"/>
      <point x="446" y="428" type="line"/>
    </contour>
  </outline>
</glyph>
<glyph name="Z" format="2">
  <advance width="630"/>
  <unicode hex="005A"/>
  <anchor x="306" y="0" name="bottomC"/>
  <anchor x="306" y="660" name="top"/>
  <anchor x="575" y="0" name="ogonek"/>
  <anchor x="306" y="0" name="bottom"/>
  <outline>
    <contour>
      <point x="562" y="589" type="line"/>
      <point x="562" y="660" type="line"/>
      <point x="66" y="660" type="line"/>
      <point x="66" y="585" type="line"/>
      <point x="504" y="585" type="line"/>
      <point x="490" y="614" type="line"/>
      <point x="56" y="71" type="line"/>
      <point x="56" y="0" type="line"/>
      <point x="575" y="0" type="line"/>
      <point x="575" y="75" type="line"/>
      <point x="114" y="75" type="line"/>
      <point x="128" y="46" type="line"/>
    </contour>
  </outline>
</glyph>
<glyph name="a" format="2">
  <advance width="566"/>
  <unicode hex="0061"/>
  <anchor x="480" y="0" name="bottomC"/>
  <anchor x="276" y="500" name="top"/>
  <anchor x="538" y="0" name="ogonek"/>
  <anchor x="276" y="0" name="bottom"/>
  <outline>
    <contour>
      <point x="66" y="388" type="curve"/>
      <point x="125" y="345" type="line"/>
      <point x="152" y="408"/>
      <point x="202" y="440"/>
      <point x="268" y="440" type="curve" smooth="yes"/>
      <point x="343" y="440"/>
      <point x="385" y="396"/>
      <point x="385" y="330" type="curve" smooth="yes"/>
      <point x="385" y="112" type="line"/>
      <point x="385" y="102" type="line" smooth="yes"/>
      <point x="385" y="16"/>
      <point x="419" y="-10"/>
      <point x="478" y="-10" type="curve" smooth="yes"/>
      <point x="503" y="-10"/>
      <point x="524" y="-5"/>
      <point x="538" y="0" type="curve"/>
      <point x="543" y="63" type="line"/>
      <point x="531" y="60"/>
      <point x="516" y="58"/>
      <point x="503" y="58" type="curve" smooth="yes"/>
      <point x="475" y="58"/>
      <point x="465" y="70"/>
      <point x="465" y="94" type="curve" smooth="yes"/>
      <point x="465" y="340" type="line" smooth="yes"/>
      <point x="465" y="456"/>
      <point x="382" y="510"/>
      <point x="268" y="510" type="curve" smooth="yes"/>
      <point x="171" y="510"/>
      <point x="92" y="462"/>
    </contour>
    <contour>
      <point x="252" y="280" type="line" smooth="yes"/>
      <point x="123" y="258"/>
      <point x="57" y="199"/>
      <point x="57" y="124" type="curve" smooth="yes"/>
      <point x="57" y="34"/>
      <point x="133" y="-10"/>
      <point x="227" y="-10" type="curve" smooth="yes"/>
      <point x="315" y="-10"/>
      <point x="407" y="42"/>
      <point x="407" y="125" type="curve"/>
      <point x="385" y="168" type="line"/>
      <point x="385" y="102"/>
      <point x="311" y="60"/>
      <point x="231" y="60" type="curve" smooth="yes"/>
      <point x="174" y="60"/>
      <point x="140" y="82"/>
      <point x="140" y="124" type="curve" smooth="yes"/>
      <point x="140" y="171"/>
      <point x="185" y="200"/>
      <point x="273" y="216" type="curve" smooth="yes"/>
      <point x="431" y="245" type="line"/>
      <point x="420" y="308" type="line"/>
    </contour>
  </outline>
</glyph>
<glyph name="c" format="2">
  <advance width="564"/>
  <unicode hex="0063"/>
  <anchor x="300" y="0" name="bottomC"/>
  <anchor x="296" y="500" name="top"/>
  <anchor x="417" y="17" name="ogonek"/>
  <anchor x="296" y="0" name="bottom"/>
  <outline>
    <contour>
      <point x="62" y="250" type="curve" smooth="yes"/>
      <point x="62" y="88"/>
      <point x="153" y="-10"/>
      <point x="304" y="-10" type="curve" smooth="yes"/>
      <point x="410" y="-10"/>
      <point x="482" y="45"/>
      <point x="516" y="137" type="curve"/>
      <point x="442" y="163" type="line"/>
      <point x="427" y="97"/>
      <point x="380" y="60"/>
      <point x="302" y="60" type="curve" smooth="yes"/>
      <point x="202" y="60"/>
      <point x="142" y="131"/>
      <point x="142" y="250" type="curve" smooth="yes"/>
      <point x="142" y="369"/>
      <point x="202" y="440"/>
      <point x="302" y="440" type="curve" smooth="yes"/>
      <point x="371" y="440"/>
      <point x="414" y="405"/>
      <point x="435" y="341" type="curve"/>
      <point x="511" y="377" type="line"/>
      <point x="474" y="459"/>
      <point x="407" y="510"/>
      <point x="304" y="510" type="curve" smooth="yes"/>
      <point x="153" y="510"/>
      <point x="62" y="412"/>
    </contour>
  </outline>
</glyph>
<glyph name="i" format="2">
  <advance width="266"/>
  <unicode hex="0069"/>
  <anchor x="133" y="0" name="bottomC"/>
  <anchor x="133" y="706" name="top"/>
  <anchor x="173" y="0" name="ogonek"/>
  <anchor x="133" y="0" name="bottom"/>
  <outline>
    <contour>
      <point x="193" y="656" type="curve" smooth="yes"/>
      <point x="193" y="692"/>
      <point x="169" y="716"/>
      <point x="133" y="716" type="curve" smooth="yes"/>
      <point x="97" y="716"/>
      <point x="73" y="692"/>
      <point x="73" y="656" type="curve" smooth="yes"/>
      <point x="73" y="620"/>
      <point x="97" y="596"/>
      <point x="133" y="596" type="curve" smooth="yes"/>
      <point x="169" y="596"/>
      <point x="193" y="620"/>
    </contour>
    <component base="idotless"/>
  </outline>
</glyph>
<glyph name="j" format="2">
  <advance width="266"/>
  <unicode hex="006A"/>
  <anchor x="47" y="-210" name="bottomC"/>
  <anchor x="133" y="706" name="top"/>
  <anchor x="79" y="-204" name="ogonek"/>
  <anchor x="47" y="-210" name="bottom"/>
  <outline>
    <contour>
      <point x="73" y="656" type="curve" smooth="yes"/>
      <point x="73" y="623"/>
      <point x="100" y="596"/>
      <point x="133" y="596" type="curve" smooth="yes"/>
      <point x="166" y="596"/>
      <point x="193" y="623"/>
      <point x="193" y="656" type="curve" smooth="yes"/>
      <point x="193" y="689"/>
      <point x="166" y="716"/>
      <point x="133" y="716" type="curve" smooth="yes"/>
      <point x="100" y="716"/>
      <point x="73" y="689"/>
    </contour>
    <component base="jdotless"/>
  </outline>
</glyph>
<glyph name="w" format="2">
  <advance width="856"/>
  <unicode hex="0077"/>
  <anchor x="623" y="0" name="bottomC"/>
  <anchor x="428" y="500" name="top"/>
  <anchor x="645" y="0" name="ogonek"/>
  <anchor x="428" y="0" name="bottom"/>
  <outline>
    <contour>
      <point x="388" y="500" type="line"/>
      <point x="565" y="0" type="line"/>
      <point x="635" y="0" type="line"/>
      <point x="468" y="500" type="line"/>
    </contour>
    <contour>
      <point x="37" y="500" type="line"/>
      <point x="211" y="0" type="line"/>
      <point x="281" y="0" type="line"/>
      <point x="126" y="500" type="line"/>
    </contour>
    <contour>
      <point x="388" y="500" type="line"/>
      <point x="221" y="0" type="line"/>
      <point x="291" y="0" type="line"/>
      <point x="458" y="500" type="line"/>
    </contour>
    <contour>
      <point x="730" y="500" type="line"/>
      <point x="575" y="0" type="line"/>
      <point x="645" y="0" type="line"/>
      <point x="819" y="500" type="line"/>
    </contour>
  </outline>
</glyph>
<glyph name="y" format="2">
  <advance width="535"/>
  <unicode hex="0079"/>
  <anchor x="123" y="-210" name="bottomC"/>
  <anchor x="273" y="500" name="top"/>
  <anchor x="164" y="-210" name="ogonek"/>
  <anchor x="159" y="-210" name="bottom"/>
  <outline>
    <contour>
      <point x="432" y="500" type="line"/>
      <point x="315" y="184" type="line"/>
      <point x="279" y="85" type="line"/>
      <point x="248" y="174" type="line"/>
      <point x="123" y="500" type="line"/>
      <point x="32" y="500" type="line"/>
      <point x="191" y="120" type="line"/>
      <point x="241" y="1" type="line"/>
      <point x="215" y="-64" type="line" smooth="yes"/>
      <point x="190" y="-130"/>
      <point x="159" y="-145"/>
      <point x="124" y="-145" type="curve" smooth="yes"/>
      <point x="96" y="-145"/>
      <point x="66" y="-137"/>
      <point x="43" y="-105" type="curve"/>
      <point x="15" y="-173" type="line"/>
      <point x="43" y="-203"/>
      <point x="75" y="-215"/>
      <point x="125" y="-215" type="curve" smooth="yes"/>
      <point x="199" y="-215"/>
      <point x="244" y="-182"/>
      <point x="283" y="-84" type="curve" smooth="yes"/>
      <point x="518" y="500" type="line"/>
    </contour>
  </outline>
</glyph>
<glyph name="yen" format="2">
  <advance width="620"/>
  <unicode hex="00A5"/>
  <outline>
    <contour>
      <point x="34" y="660" type="line"/>
      <point x="273" y="264" type="line"/>
      <point x="347" y="264" type="line"/>
      <point x="586" y="660" type="line"/>
      <point x="493" y="660" type="line"/>
      <point x="359" y="418" type="line"/>
      <point x="311" y="318" type="line"/>
      <point x="309" y="318" type="line"/>
      <point x="261" y="417" type="line"/>
      <point x="127" y="660" type="line"/>
    </contour>
    <contour>
      <point x="345" y="0" type="line"/>
      <point x="345" y="257" type="line"/>
      <point x="275" y="257" type="line"/>
      <point x="275" y="0" type="line"/>
    </contour>
    <contour>
      <point x="538" y="107" type="line"/>
      <point x="538" y="162" type="line"/>
      <point x="83" y="162" type="line"/>
      <point x="83" y="107" type="line"/>
    </contour>
    <contour>
      <point x="538" y="237" type="line"/>
      <point x="538" y="297" type="line"/>
      <point x="408" y="297" type="line"/>
      <point x="310" y="287" type="line"/>
      <point x="212" y="297" type="line"/>
      <point x="83" y="297" type="line"/>
      <point x="83" y="237" type="line"/>
    </contour>
  </outline>
</glyph>
<glyph name="onesuperior" format="2">
  <advance width="242"/>
  <unicode hex="00B9"/>
  <anchor x="133" y="527" name="_indexring"/>
  <outline>
    <contour>
      <point x="189" y="730" type="line"/>
      <point x="127" y="730" type="line"/>
      <point x="123" y="691"/>
      <point x="119" y="623"/>
      <point x="119" y="584" type="curve" smooth="yes"/>
      <point x="119" y="333" type="line"/>
      <point x="189" y="333" type="line"/>
      <point x="189" y="639" type="line"/>
    </contour>
    <contour>
      <point x="165" y="714" type="curve"/>
      <point x="127" y="730" type="line"/>
      <point x="106" y="698"/>
      <point x="46" y="665"/>
      <point x="10" y="658" type="curve"/>
      <point x="10" y="598" type="line"/>
      <point x="78" y="609"/>
      <point x="142" y="665"/>
    </contour>
  </outline>
</glyph>
<glyph name="Oslash" format="2">
  <advance width="748"/>
  <unicode hex="00D8"/>
  <anchor x="374" y="0" name="bottomC"/>
  <anchor x="374" y="660" name="top"/>
  <anchor x="452" y="0" name="ogonek"/>
  <anchor x="374" y="0" name="bottom"/>
  <outline>
    <contour>
      <point x="590" y="683" type="line"/>
      <point x="518" y="580" type="line"/>
      <point x="564" y="544" type="line"/>
      <point x="661" y="683" type="line"/>
    </contour>
    <contour>
      <point x="183" y="100" type="line"/>
      <point x="229" y="63" type="line"/>
      <point x="564" y="544" type="line"/>
      <point x="518" y="580" type="line"/>
    </contour>
    <contour>
      <point x="159" y="-37" type="line"/>
      <point x="229" y="63" type="line"/>
      <point x="183" y="100" type="line"/>
      <point x="88" y="-37" type="line"/>
    </contour>
    <component base="O"/>
  </outline>
</glyph>
<glyph name="ae" format="2">
  <advance width="884"/>
  <unicode hex="00E6"/>
  <anchor x="614" y="0" name="bottomC"/>
  <anchor x="428" y="500" name="top"/>
  <anchor x="683" y="0" name="ogonek"/>
  <anchor x="428" y="0" name="bottom"/>
  <outline>
    <contour>
      <point x="815" y="99" type="curve"/>
      <point x="748" y="134" type="line"/>
      <point x="730" y="86"/>
      <point x="690" y="60"/>
      <point x="617" y="60" type="curve" smooth="yes"/>
      <point x="528" y="60"/>
      <point x="463" y="131"/>
      <point x="463" y="250" type="curve" smooth="yes"/>
      <point x="463" y="369"/>
      <point x="522" y="440"/>
      <point x="611" y="440" type="curve" smooth="yes"/>
      <point x="705" y="440"/>
      <point x="748" y="370"/>
      <point x="750" y="260" type="curve"/>
      <point x="786" y="291" type="line"/>
      <point x="417" y="291" type="line"/>
      <point x="417" y="220" type="line"/>
      <point x="821" y="220" type="line"/>
      <point x="823" y="234"/>
      <point x="825" y="253"/>
      <point x="825" y="276" type="curve" smooth="yes"/>
      <point x="825" y="405"/>
      <point x="756" y="510"/>
      <point x="611" y="510" type="curve" smooth="yes"/>
      <point x="483" y="510"/>
      <point x="401" y="402"/>
      <point x="401" y="250" type="curve" smooth="yes"/>
      <point x="401" y="68"/>
      <point x="488" y="-10"/>
      <point x="617" y="-10" type="curve" smooth="yes"/>
      <point x="725" y="-10"/>
      <point x="777" y="31"/>
    </contour>
    <contour>
      <point x="434" y="179" type="curve"/>
      <point x="392" y="198" type="line"/>
      <point x="392" y="112"/>
      <point x="316" y="60"/>
      <point x="234" y="60" type="curve" smooth="yes"/>
      <point x="173" y="60"/>
      <point x="140" y="81"/>
      <point x="140" y="124" type="curve" smooth="yes"/>
      <point x="140" y="171"/>
      <point x="176" y="195"/>
      <point x="264" y="209" type="curve" smooth="yes"/>
      <point x="434" y="236" type="line"/>
      <point x="423" y="296" type="line"/>
      <point x="243" y="273" type="line" smooth="yes"/>
      <point x="120" y="257"/>
      <point x="57" y="199"/>
      <point x="57" y="124" type="curve" smooth="yes"/>
      <point x="57" y="42"/>
      <point x="122" y="-10"/>
      <point x="220" y="-10" type="curve" smooth="yes"/>
      <point x="338" y="-10"/>
      <point x="434" y="54"/>
    </contour>
    <contour>
      <point x="460" y="188" type="line"/>
      <point x="460" y="290" type="line" smooth="yes"/>
      <point x="460" y="435"/>
      <point x="386" y="510"/>
      <point x="271" y="510" type="curve" smooth="yes"/>
      <point x="175" y="510"/>
      <point x="95" y="465"/>
      <point x="66" y="388" type="curve"/>
      <point x="125" y="345" type="line"/>
      <point x="152" y="408"/>
      <point x="203" y="440"/>
      <point x="269" y="440" type="curve" smooth="yes"/>
      <point x="348" y="440"/>
      <point x="392" y="396"/>
      <point x="392" y="330" type="curve" smooth="yes"/>
      <point x="392" y="181" type="line"/>
    </contour>
  </outline>
</glyph>
<glyph name="aogonek" format="2">
  <advance width="566"/>
  <unicode hex="0105"/>
  <anchor x="475" y="-210" name="bottomC"/>
  <anchor x="276" y="500" name="top"/>
  <anchor x="506" y="-210" name="ogonek"/>
  <anchor x="276" y="-210" name="bottom"/>
  <outline>
    <contour>
      <point x="66" y="388" type="curve"/>
      <point x="125" y="345" type="line"/>
      <point x="152" y="408"/>
      <point x="202" y="440"/>
      <point x="268" y="440" type="curve" smooth="yes"/>
      <point x="343" y="440"/>
      <point x="385" y="396"/>
      <point x="385" y="330" type="curve" smooth="yes"/>
      <point x="385" y="128" type="line"/>
      <point x="385" y="112" type="line" smooth="yes"/>
      <point x="385" y="16"/>
      <point x="449" y="-10"/>
      <point x="488" y="-10" type="curve" smooth="yes"/>
      <point x="503" y="-10"/>
      <point x="524" y="-5"/>
      <point x="538" y="0" type="curve"/>
      <point x="543" y="63" type="line"/>
      <point x="531" y="60"/>
      <point x="516" y="58"/>
      <point x="503" y="58" type="curve" smooth="yes"/>
      <point x="475" y="58"/>
      <point x="465" y="70"/>
      <point x="465" y="94" type="curve" smooth="yes"/>
      <point x="465" y="340" type="line" smooth="yes"/>
      <point x="465" y="456"/>
      <point x="382" y="510"/>
      <point x="268" y="510" type="curve" smooth="yes"/>
      <point x="171" y="510"/>
      <point x="92" y="462"/>
    </contour>
    <contour>
      <point x="349" y="-119" type="curve" smooth="yes"/>
      <point x="349" y="-177"/>
      <point x="394" y="-215"/>
      <point x="466" y="-215" type="curve" smooth="yes"/>
      <point x="495" y="-215"/>
      <point x="524" y="-209"/>
      <point x="543" y="-197" type="curve"/>
      <point x="527" y="-146" type="line"/>
      <point x="511" y="-156"/>
      <point x="489" y="-158"/>
      <point x="472" y="-158" type="curve" smooth="yes"/>
      <point x="434" y="-158"/>
      <point x="414" y="-138"/>
      <point x="414" y="-105" type="curve" smooth="yes"/>
      <point x="414" y="-65"/>
      <point x="440" y="-30"/>
      <point x="538" y="0" type="curve"/>
      <point x="492" y="26" type="line"/>
      <point x="403" y="-6"/>
      <point x="349" y="-49"/>
    </contour>
    <contour>
      <point x="252" y="280" type="line" smooth="yes"/>
      <point x="123" y="258"/>
      <point x="57" y="199"/>
      <point x="57" y="124" type="curve" smooth="yes"/>
      <point x="57" y="34"/>
      <point x="133" y="-10"/>
      <point x="227" y="-10" type="curve" smooth="yes"/>
      <point x="315" y="-10"/>
      <point x="407" y="42"/>
      <point x="407" y="125" type="curve"/>
      <point x="385" y="168" type="line"/>
      <point x="385" y="102"/>
      <point x="311" y="60"/>
      <point x="231" y="60" type="curve" smooth="yes"/>
      <point x="174" y="60"/>
      <point x="140" y="82"/>
      <point x="140" y="124" type="curve" smooth="yes"/>
      <point x="140" y="171"/>
      <point x="185" y="198"/>
      <point x="273" y="216" type="curve" smooth="yes"/>
      <point x="431" y="245" type="line"/>
      <point x="420" y="308" type="line"/>
    </contour>
  </outline>
</glyph>
<glyph name="uni0123" format="2">
  <advance width="532"/>
  <unicode hex="0123"/>
  <anchor x="267" y="500" name="top"/>
  <anchor x="401" y="-193" name="ogonek"/>
  <anchor x="267" y="-210" name="bottom"/>
  <anchor x="267" y="-210" name="bottomC"/>
  <outline>
    <contour>
      <point x="297" y="778" type="line"/>
      <point x="227" y="587" type="line"/>
      <point x="315" y="587" type="line"/>
      <point x="357" y="778" type="line"/>
    </contour>
    <component base="g"/>
  </outline>
</glyph>
<glyph name="Imacron" format="2">
  <advance width="296"/>
  <unicode hex="012A"/>
  <anchor x="148" y="660" name="top"/>
  <anchor x="188" y="0" name="ogonek"/>
  <anchor x="148" y="0" name="bottom"/>
  <anchor x="148" y="0" name="bottomC"/>
  <outline>
    <contour>
      <point x="40" y="823" type="line"/>
      <point x="40" y="756" type="line"/>
      <point x="256" y="756" type="line"/>
      <point x="256" y="823" type="line"/>
    </contour>
    <component base="I"/>
  </outline>
</glyph>
<glyph name="florin" format="2">
  <advance width="488"/>
  <unicode hex="0192"/>
  <outline>
    <contour>
      <point x="234" y="584" type="curve" smooth="yes"/>
      <point x="146" y="31" type="line" smooth="yes"/>
      <point x="137" y="-28"/>
      <point x="112" y="-55"/>
      <point x="69" y="-55" type="curve" smooth="yes"/>
      <point x="40" y="-55"/>
      <point x="18" y="-48"/>
      <point x="-4" y="-32" type="curve"/>
      <point x="-16" y="-104" type="line"/>
      <point x="16" y="-123"/>
      <point x="36" y="-128"/>
      <point x="76" y="-128" type="curve" smooth="yes"/>
      <point x="160" y="-128"/>
      <point x="210" y="-77"/>
      <point x="226" y="23" type="curve" smooth="yes"/>
      <point x="314" y="576" type="line" smooth="yes"/>
      <point x="323" y="635"/>
      <point x="348" y="662"/>
      <point x="391" y="662" type="curve" smooth="yes"/>
      <point x="420" y="662"/>
      <point x="442" y="655"/>
      <point x="464" y="639" type="curve"/>
      <point x="476" y="711" type="line"/>
      <point x="444" y="730"/>
      <point x="424" y="735"/>
      <point x="384" y="735" type="curve" smooth="yes"/>
      <point x="300" y="735"/>
      <point x="250" y="684"/>
    </contour>
    <contour>
      <point x="54" y="400" type="line"/>
      <point x="54" y="331" type="line"/>
      <point x="434" y="331" type="line"/>
      <point x="434" y="400" type="line"/>
    </contour>
  </outline>
</glyph>
<glyph name="guilsinglleft" format="2">
  <advance width="316"/>
  <unicode hex="2039"/>
  <outline>
    <contour>
      <point x="177" y="461" type="line"/>
      <point x="51" y="265" type="line"/>
      <point x="177" y="69" type="line"/>
      <point x="264" y="69" type="line"/>
      <point x="136" y="265" type="line"/>
      <point x="264" y="461" type="line"/>
    </contour>
  </outline>
</glyph>
<glyph name="fraction" format="2">
  <advance width="248"/>
  <unicode hex="2044"/>
  <outline>
    <contour>
      <point x="-75" y="0" type="line"/>
      <point x="402" y="660" type="line"/>
      <point x="323" y="660" type="line"/>
      <point x="-154" y="0" type="line"/>
    </contour>
  </outline>
</glyph>
<glyph name="fivesuperior" format="2">
  <advance width="360"/>
  <unicode hex="2075"/>
  <anchor x="180" y="536" name="_indexring"/>
  <outline>
    <contour>
      <point x="103" y="554" type="curve"/>
      <point x="102" y="554" type="line"/>
      <point x="104" y="561"/>
      <point x="106" y="569"/>
      <point x="107" y="582" type="curve" smooth="yes"/>
      <point x="115" y="672" type="line"/>
      <point x="310" y="672" type="line"/>
      <point x="310" y="730" type="line"/>
      <point x="61" y="730" type="line"/>
      <point x="43" y="498" type="line"/>
      <point x="97" y="498" type="line"/>
      <point x="112" y="523"/>
      <point x="137" y="537"/>
      <point x="181" y="537" type="curve" smooth="yes"/>
      <point x="236" y="537"/>
      <point x="262" y="511"/>
      <point x="262" y="463" type="curve" smooth="yes"/>
      <point x="262" y="417"/>
      <point x="228" y="386"/>
      <point x="178" y="386" type="curve" smooth="yes"/>
      <point x="126" y="386"/>
      <point x="99" y="409"/>
      <point x="89" y="449" type="curve"/>
      <point x="26" y="413" type="line"/>
      <point x="55" y="352"/>
      <point x="106" y="328"/>
      <point x="180" y="328" type="curve" smooth="yes"/>
      <point x="266" y="328"/>
      <point x="331" y="375"/>
      <point x="331" y="464" type="curve" smooth="yes"/>
      <point x="331" y="535"/>
      <point x="280" y="589"/>
      <point x="200" y="589" type="curve" smooth="yes"/>
      <point x="143" y="589"/>
      <point x="120" y="575"/>
    </contour>
  </outline>
</glyph>
<glyph name="sevensuperior" format="2">
  <advance width="312"/>
  <unicode hex="2077"/>
  <anchor x="146" y="543" name="_indexring"/>
  <outline>
    <contour>
      <point x="172" y="333" type="line"/>
      <point x="172" y="467"/>
      <point x="208" y="570"/>
      <point x="306" y="672" type="curve"/>
      <point x="306" y="730" type="line"/>
      <point x="3" y="730" type="line"/>
      <point x="3" y="672" type="line"/>
      <point x="274" y="672" type="line"/>
      <point x="260" y="693" type="line"/>
      <point x="148" y="589"/>
      <point x="102" y="464"/>
      <point x="102" y="333" type="curve"/>
    </contour>
  </outline>
</glyph>
<glyph name="eightsuperior" format="2">
  <advance width="385"/>
  <unicode hex="2078"/>
  <anchor x="192" y="530" name="_indexring"/>
  <outline>
    <contour>
      <point x="49" y="627" type="curve" smooth="yes"/>
      <point x="49" y="584"/>
      <point x="75" y="552"/>
      <point x="119" y="538" type="curve"/>
      <point x="119" y="537" type="line"/>
      <point x="66" y="522"/>
      <point x="34" y="488"/>
      <point x="34" y="440" type="curve" smooth="yes"/>
      <point x="34" y="370"/>
      <point x="96" y="327"/>
      <point x="192" y="327" type="curve" smooth="yes"/>
      <point x="289" y="327"/>
      <point x="350" y="370"/>
      <point x="350" y="440" type="curve" smooth="yes"/>
      <point x="350" y="489"/>
      <point x="318" y="522"/>
      <point x="265" y="537" type="curve"/>
      <point x="265" y="538" type="line"/>
      <point x="310" y="553"/>
      <point x="335" y="585"/>
      <point x="335" y="627" type="curve" smooth="yes"/>
      <point x="335" y="693"/>
      <point x="280" y="734"/>
      <point x="192" y="734" type="curve" smooth="yes"/>
      <point x="104" y="734"/>
      <point x="49" y="693"/>
    </contour>
    <contour>
      <point x="266" y="623" type="curve" smooth="yes"/>
      <point x="266" y="587"/>
      <point x="237" y="564"/>
      <point x="192" y="564" type="curve" smooth="yes"/>
      <point x="147" y="564"/>
      <point x="118" y="587"/>
      <point x="118" y="623" type="curve" smooth="yes"/>
      <point x="118" y="659"/>
      <point x="146" y="681"/>
      <point x="192" y="681" type="curve" smooth="yes"/>
      <point x="238" y="681"/>
      <point x="266" y="659"/>
    </contour>
    <contour>
      <point x="105" y="445" type="curve" smooth="yes"/>
      <point x="105" y="485"/>
      <point x="140" y="510"/>
      <point x="192" y="510" type="curve" smooth="yes"/>
      <point x="245" y="510"/>
      <point x="279" y="485"/>
      <point x="279" y="445" type="curve" smooth="yes"/>
      <point x="279" y="406"/>
      <point x="245" y="381"/>
      <point x="192" y="381" type="curve" smooth="yes"/>
      <point x="139" y="381"/>
      <point x="105" y="406"/>
    </contour>
  </outline>
</glyph>
<glyph name="ninesuperior" format="2">
  <advance width="381"/>
  <unicode hex="2079"/>
  <anchor x="182" y="530" name="_indexring"/>
  <outline>
    <contour>
      <point x="34" y="605" type="curve" smooth="yes"/>
      <point x="34" y="528"/>
      <point x="87" y="480"/>
      <point x="178" y="480" type="curve" smooth="yes"/>
      <point x="222" y="480"/>
      <point x="269" y="507"/>
      <point x="279" y="533" type="curve"/>
      <point x="280" y="533" type="line"/>
      <point x="281" y="527"/>
      <point x="281" y="520"/>
      <point x="281" y="513" type="curve" smooth="yes"/>
      <point x="281" y="451"/>
      <point x="257" y="383"/>
      <point x="183" y="383" type="curve" smooth="yes"/>
      <point x="132" y="383"/>
      <point x="110" y="405"/>
      <point x="101" y="441" type="curve"/>
      <point x="35" y="413" type="line"/>
      <point x="57" y="355"/>
      <point x="108" y="327"/>
      <point x="182" y="327" type="curve" smooth="yes"/>
      <point x="284" y="327"/>
      <point x="347" y="397"/>
      <point x="347" y="530" type="curve" smooth="yes"/>
      <point x="347" y="661"/>
      <point x="286" y="735"/>
      <point x="184" y="735" type="curve" smooth="yes"/>
      <point x="91" y="735"/>
      <point x="34" y="685"/>
    </contour>
    <contour>
      <point x="267" y="606" type="curve" smooth="yes"/>
      <point x="267" y="566"/>
      <point x="233" y="535"/>
      <point x="184" y="535" type="curve" smooth="yes"/>
      <point x="133" y="535"/>
      <point x="103" y="562"/>
      <point x="103" y="606" type="curve" smooth="yes"/>
      <point x="103" y="651"/>
      <point x="133" y="678"/>
      <point x="185" y="678" type="curve" smooth="yes"/>
      <point x="233" y="678"/>
      <point x="267" y="649"/>
    </contour>
  </outline>
</glyph>
<glyph name="uni20BA" format="2">
  <advance width="650"/>
  <unicode hex="20BA"/>
  <outline>
    <contour>
      <point x="525" y="268" type="line"/>
      <point x="525" y="131"/>
      <point x="464" y="68"/>
      <point x="340" y="68" type="curve" smooth="yes"/>
      <point x="234" y="68" type="line"/>
      <point x="234" y="0" type="line"/>
      <point x="348" y="0" type="line" smooth="yes"/>
      <point x="509" y="0"/>
      <point x="595" y="85"/>
      <point x="602" y="268" type="curve"/>
    </contour>
    <contour>
      <point x="192" y="660" type="line"/>
      <point x="192" y="0" type="line"/>
      <point x="267" y="0" type="line"/>
      <point x="267" y="660" type="line"/>
    </contour>
    <contour>
      <point x="63" y="283" type="line"/>
      <point x="63" y="225" type="line"/>
      <point x="478" y="345" type="line"/>
      <point x="478" y="403" type="line"/>
    </contour>
    <contour>
      <point x="63" y="433" type="line"/>
      <point x="63" y="375" type="line"/>
      <point x="478" y="495" type="line"/>
      <point x="478" y="553" type="line"/>
    </contour>
  </outline>
</glyph>
<glyph name="uni2113" format="2">
  <advance width="400"/>
  <unicode hex="2113"/>
  <outline>
    <contour>
      <point x="346" y="4" type="curve"/>
      <point x="353" y="71" type="line"/>
      <point x="318" y="62"/>
      <point x="297" y="57"/>
      <point x="266" y="57" type="curve" smooth="yes"/>
      <point x="219" y="57"/>
      <point x="192" y="94"/>
      <point x="192" y="134" type="curve" smooth="yes"/>
      <point x="192" y="540" type="line" smooth="yes"/>
      <point x="192" y="584"/>
      <point x="201" y="607"/>
      <point x="232" y="607" type="curve" smooth="yes"/>
      <point x="260" y="607"/>
      <point x="271" y="592"/>
      <point x="271" y="545" type="curve" smooth="yes"/>
      <point x="271" y="422"/>
      <point x="194" y="294"/>
      <point x="47" y="244" type="curve"/>
      <point x="47" y="177" type="line"/>
      <point x="235" y="239"/>
      <point x="337" y="407"/>
      <point x="337" y="540" type="curve" smooth="yes"/>
      <point x="337" y="635"/>
      <point x="301" y="670"/>
      <point x="230" y="670" type="curve" smooth="yes"/>
      <point x="159" y="670"/>
      <point x="122" y="626"/>
      <point x="122" y="535" type="curve" smooth="yes"/>
      <point x="122" y="124" type="line" smooth="yes"/>
      <point x="122" y="29"/>
      <point x="167" y="-10"/>
      <point x="262" y="-10" type="curve" smooth="yes"/>
      <point x="292" y="-10"/>
      <point x="322" y="-5"/>
    </contour>
  </outline>
</glyph>
<glyph name="uni2206" format="2">
  <advance width="699"/>
  <unicode hex="2206"/>
  <outline>
    <contour>
      <point x="302" y="660" type="line"/>
      <point x="40" y="67" type="line"/>
      <point x="40" y="0" type="line"/>
      <point x="659" y="0" type="line"/>
      <point x="659" y="67" type="line"/>
      <point x="397" y="660" type="line"/>
    </contour>
    <contour>
      <point x="586" y="67" type="line"/>
      <point x="113" y="67" type="line"/>
      <point x="349" y="599" type="line"/>
    </contour>
  </outline>
</glyph>
<glyph name="radical" format="2">
  <advance width="672"/>
  <unicode hex="221A"/>
  <outline>
    <contour>
      <point x="594" y="818" type="line"/>
      <point x="337" y="159" type="line"/>
      <point x="286" y="0" type="line"/>
      <point x="348" y="0" type="line"/>
      <point x="672" y="818" type="line"/>
    </contour>
    <contour>
      <point x="20" y="429" type="line"/>
      <point x="20" y="354" type="line"/>
      <point x="124" y="354" type="line"/>
      <point x="269" y="0" type="line"/>
      <point x="334" y="0" type="line"/>
      <point x="283" y="156" type="line"/>
      <point x="169" y="429" type="line"/>
    </contour>
  </outline>
</glyph>
<glyph name="infinity" format="2">
  <advance width="886"/>
  <unicode hex="221E"/>
  <outline>
    <contour>
      <point x="416" y="321" type="curve" smooth="yes"/>
      <point x="299" y="181"/>
      <point x="284" y="160"/>
      <point x="234" y="160" type="curve" smooth="yes"/>
      <point x="190" y="160"/>
      <point x="149" y="207"/>
      <point x="149" y="290" type="curve" smooth="yes"/>
      <point x="149" y="373"/>
      <point x="190" y="420"/>
      <point x="234" y="420" type="curve" smooth="yes"/>
      <point x="283" y="420"/>
      <point x="319" y="380"/>
      <point x="415" y="270" type="curve" smooth="yes"/>
      <point x="515" y="155"/>
      <point x="570" y="100"/>
      <point x="650" y="100" type="curve" smooth="yes"/>
      <point x="740" y="100"/>
      <point x="815" y="174"/>
      <point x="815" y="300" type="curve" smooth="yes"/>
      <point x="815" y="426"/>
      <point x="740" y="500"/>
      <point x="650" y="500" type="curve" smooth="yes"/>
      <point x="587" y="500"/>
      <point x="557" y="489"/>
    </contour>
    <contour>
      <point x="71" y="300" type="curve" smooth="yes"/>
      <point x="71" y="174"/>
      <point x="146" y="100"/>
      <point x="236" y="100" type="curve" smooth="yes"/>
      <point x="306" y="100"/>
      <point x="334" y="118"/>
      <point x="465" y="276" type="curve" smooth="yes"/>
      <point x="587" y="423"/>
      <point x="603" y="440"/>
      <point x="652" y="440" type="curve" smooth="yes"/>
      <point x="696" y="440"/>
      <point x="737" y="393"/>
      <point x="737" y="310" type="curve" smooth="yes"/>
      <point x="737" y="227"/>
      <point x="696" y="179"/>
      <point x="652" y="180" type="curve" smooth="yes"/>
      <point x="606" y="181"/>
      <point x="554" y="227"/>
      <point x="468" y="333" type="curve" smooth="yes"/>
      <point x="373" y="450"/>
      <point x="316" y="500"/>
      <point x="236" y="500" type="curve" smooth="yes"/>
      <point x="146" y="500"/>
      <point x="71" y="426"/>
    </contour>
  </outline>
</glyph>
<glyph name="integral" format="2">
  <advance width="459"/>
  <unicode hex="222B"/>
  <outline>
    <contour>
      <point x="190" y="607" type="curve" smooth="yes"/>
      <point x="190" y="31" type="line" smooth="yes"/>
      <point x="190" y="-30"/>
      <point x="154" y="-55"/>
      <point x="113" y="-55" type="curve" smooth="yes"/>
      <point x="79" y="-55"/>
      <point x="58" y="-45"/>
      <point x="40" y="-32" type="curve"/>
      <point x="28" y="-104" type="line"/>
      <point x="50" y="-117"/>
      <point x="68" y="-128"/>
      <point x="120" y="-128" type="curve" smooth="yes"/>
      <point x="213" y="-128"/>
      <point x="270" y="-66"/>
      <point x="270" y="23" type="curve" smooth="yes"/>
      <point x="270" y="599" type="line" smooth="yes"/>
      <point x="270" y="660"/>
      <point x="306" y="685"/>
      <point x="347" y="685" type="curve" smooth="yes"/>
      <point x="381" y="685"/>
      <point x="402" y="675"/>
      <point x="420" y="662" type="curve"/>
      <point x="432" y="734" type="line"/>
      <point x="410" y="747"/>
      <point x="392" y="758"/>
      <point x="340" y="758" type="curve" smooth="yes"/>
      <point x="247" y="758"/>
      <point x="190" y="696"/>
    </contour>
  </outline>
</glyph>
<glyph name="notequal" format="2">
  <advance width="604"/>
  <unicode hex="2260"/>
  <outline>
    <contour>
      <point x="383" y="543" type="line"/>
      <point x="143" y="64" type="line"/>
      <point x="222" y="64" type="line"/>
      <point x="462" y="543" type="line"/>
    </contour>
    <contour>
      <point x="64" y="441" type="line"/>
      <point x="64" y="371" type="line"/>
      <point x="540" y="371" type="line"/>
      <point x="540" y="441" type="line"/>
    </contour>
    <contour>
      <point x="64" y="236" type="line"/>
      <point x="64" y="166" type="line"/>
      <point x="540" y="166" type="line"/>
      <point x="540" y="236" type="line"/>
    </contour>
  </outline>
</glyph>
<glyph name="whiteCircle" format="2">
  <advance width="600"/>
  <unicode hex="25CB"/>
  <outline>
    <contour>
      <point x="560" y="250" type="curve" smooth="yes"/>
      <point x="560" y="398"/>
      <point x="448" y="510"/>
      <point x="300" y="510" type="curve" smooth="yes"/>
      <point x="152" y="510"/>
      <point x="40" y="398"/>
      <point x="40" y="250" type="curve" smooth="yes"/>
      <point x="40" y="102"/>
      <point x="152" y="-10"/>
      <point x="300" y="-10" type="curve" smooth="yes"/>
      <point x="448" y="-10"/>
      <point x="560" y="102"/>
    </contour>
    <contour>
      <point x="120" y="250" type="curve" smooth="yes"/>
      <point x="120" y="355"/>
      <point x="197" y="435"/>
      <point x="300" y="435" type="curve" smooth="yes"/>
      <point x="403" y="435"/>
      <point x="480" y="355"/>
      <point x="480" y="250" type="curve" smooth="yes"/>
      <point x="480" y="145"/>
      <point x="403" y="65"/>
      <point x="300" y="65" type="curve" smooth="yes"/>
      <point x="197" y="65"/>
      <point x="120" y="145"/>
    </contour>
  </outline>
</glyph>
<glyph name="Adieresis.titl" format="2">
  <advance width="660"/>
  <outline>
    <contour>
      <point x="542" y="608" type="curve" smooth="yes"/>
      <point x="542" y="640"/>
      <point x="520" y="662"/>
      <point x="488" y="662" type="curve" smooth="yes"/>
      <point x="455" y="662"/>
      <point x="433" y="640"/>
      <point x="433" y="608" type="curve" smooth="yes"/>
      <point x="433" y="575"/>
      <point x="455" y="553"/>
      <point x="488" y="553" type="curve" smooth="yes"/>
      <point x="520" y="553"/>
      <point x="542" y="575"/>
    </contour>
    <contour>
      <point x="228" y="608" type="curve" smooth="yes"/>
      <point x="228" y="640"/>
      <point x="206" y="662"/>
      <point x="173" y="662" type="curve" smooth="yes"/>
      <point x="141" y="662"/>
      <point x="119" y="640"/>
      <point x="119" y="608" type="curve" smooth="yes"/>
      <point x="119" y="575"/>
      <point x="141" y="553"/>
      <point x="173" y="553" type="curve" smooth="yes"/>
      <point x="206" y="553"/>
      <point x="228" y="575"/>
    </contour>
    <contour>
      <point x="110" y="0" type="line"/>
      <point x="299" y="495" type="line"/>
      <point x="328" y="584" type="line"/>
      <point x="330" y="584" type="line"/>
      <point x="361" y="492" type="line"/>
      <point x="549" y="0" type="line"/>
      <point x="634" y="0" type="line"/>
      <point x="378" y="660" type="line"/>
      <point x="283" y="660" type="line"/>
      <point x="26" y="0" type="line"/>
    </contour>
    <contour>
      <point x="505" y="183" type="line"/>
      <point x="505" y="258" type="line"/>
      <point x="152" y="258" type="line"/>
      <point x="152" y="183" type="line"/>
    </contour>
  </outline>
</glyph>
<glyph name="M.swsh" format="2">
  <advance width="1073"/>
  <anchor x="672" y="0" name="bottomC"/>
  <anchor x="646" y="660" name="top"/>
  <anchor x="965" y="0" name="ogonek"/>
  <anchor x="646" y="0" name="bottom"/>
  <outline>
    <contour>
      <point x="680" y="0" type="line"/>
      <point x="897" y="589" type="line"/>
      <point x="898" y="589" type="line"/>
      <point x="889" y="415" type="line"/>
      <point x="889" y="0" type="line"/>
      <point x="965" y="0" type="line"/>
      <point x="965" y="660" type="line"/>
      <point x="842" y="660" type="line"/>
      <point x="698" y="258" type="line"/>
      <point x="647" y="94" type="line"/>
      <point x="645" y="94" type="line"/>
      <point x="595" y="259" type="line"/>
      <point x="450" y="660" type="line"/>
      <point x="327" y="660" type="line"/>
      <point x="327" y="200" type="line"/>
      <point x="403" y="200" type="line"/>
      <point x="403" y="415" type="line"/>
      <point x="394" y="589" type="line"/>
      <point x="395" y="589" type="line"/>
      <point x="612" y="0" type="line"/>
    </contour>
    <contour>
      <point x="200" y="366" type="line"/>
      <point x="136" y="377"/>
      <point x="90" y="419"/>
      <point x="90" y="480" type="curve" smooth="yes"/>
      <point x="90" y="558"/>
      <point x="148" y="595"/>
      <point x="236" y="595" type="curve" smooth="yes"/>
      <point x="433" y="595" type="line"/>
      <point x="433" y="660" type="line"/>
      <point x="219" y="660" type="line" smooth="yes"/>
      <point x="92" y="660"/>
      <point x="10" y="593"/>
      <point x="10" y="481" type="curve" smooth="yes"/>
      <point x="10" y="382"/>
      <point x="84" y="315"/>
      <point x="169" y="302" type="curve"/>
    </contour>
    <component base="swash_bttmleft" xOffset="42"/>
  </outline>
</glyph>
<glyph name="R.ss03" format="2">
  <advance width="655"/>
  <anchor x="564" y="0" name="bottomC"/>
  <anchor x="322" y="660" name="top"/>
  <anchor x="591" y="0" name="ogonek"/>
  <anchor x="365" y="0" name="bottom"/>
  <outline>
    <contour>
      <point x="188" y="0" type="line"/>
      <point x="188" y="274" type="line"/>
      <point x="328" y="274" type="line" smooth="yes"/>
      <point x="431" y="274"/>
      <point x="477" y="233"/>
      <point x="481" y="156" type="curve" smooth="yes"/>
      <point x="486" y="63"/>
      <point x="495" y="23"/>
      <point x="505" y="0" type="curve"/>
      <point x="591" y="0" type="line"/>
      <point x="591" y="3" type="line"/>
      <point x="578" y="24"/>
      <point x="567" y="45"/>
      <point x="560" y="164" type="curve" smooth="yes"/>
      <point x="557" y="236"/>
      <point x="520" y="285"/>
      <point x="443" y="298" type="curve"/>
      <point x="443" y="300" type="line"/>
      <point x="533" y="322"/>
      <point x="581" y="381"/>
      <point x="581" y="467" type="curve" smooth="yes"/>
      <point x="581" y="586"/>
      <point x="492" y="660"/>
      <point x="358" y="660" type="curve" smooth="yes"/>
      <point x="108" y="660" type="line"/>
      <point x="108" y="0" type="line"/>
    </contour>
    <contour>
      <point x="188" y="585" type="line"/>
      <point x="357" y="585" type="line" smooth="yes"/>
      <point x="451" y="585"/>
      <point x="497" y="546"/>
      <point x="497" y="467" type="curve" smooth="yes"/>
      <point x="497" y="388"/>
      <point x="451" y="349"/>
      <point x="357" y="349" type="curve" smooth="yes"/>
      <point x="188" y="349" type="line"/>
    </contour>
  </outline>
</glyph>
<glyph name="R.swsh" format="2">
  <advance width="884"/>
  <anchor x="800" y="0" name="bottomC"/>
  <anchor x="541" y="660" name="top"/>
  <anchor x="840" y="0" name="ogonek"/>
  <anchor x="584" y="0" name="bottom"/>
  <outline>
    <contour>
      <point x="577" y="274" type="line" smooth="yes"/>
      <point x="711" y="274"/>
      <point x="800" y="348"/>
      <point x="800" y="467" type="curve" smooth="yes"/>
      <point x="800" y="586"/>
      <point x="711" y="660"/>
      <point x="577" y="660" type="curve" smooth="yes"/>
      <point x="367" y="660" type="line"/>
      <point x="367" y="585" type="line"/>
      <point x="576" y="585" type="line" smooth="yes"/>
      <point x="670" y="585"/>
      <point x="716" y="546"/>
      <point x="716" y="467" type="curve" smooth="yes"/>
      <point x="716" y="388"/>
      <point x="670" y="349"/>
      <point x="576" y="349" type="curve" smooth="yes"/>
      <point x="367" y="349" type="line"/>
      <point x="367" y="274" type="line"/>
    </contour>
    <contour>
      <point x="407" y="66" type="curve" smooth="yes"/>
      <point x="407" y="202" type="line"/>
      <point x="327" y="202" type="line"/>
      <point x="327" y="90" type="line" smooth="yes"/>
      <point x="327" y="13"/>
      <point x="284" y="-41"/>
      <point x="211" y="-41" type="curve" smooth="yes"/>
      <point x="140" y="-41"/>
      <point x="109" y="-10"/>
      <point x="97" y="64" type="curve"/>
      <point x="38" y="21" type="line"/>
      <point x="50" y="-58"/>
      <point x="104" y="-110"/>
      <point x="211" y="-110" type="curve" smooth="yes"/>
      <point x="340" y="-110"/>
      <point x="407" y="-26"/>
    </contour>
    <contour>
      <point x="407" y="188" type="line"/>
      <point x="407" y="660" type="line"/>
      <point x="327" y="660" type="line"/>
      <point x="327" y="188" type="line"/>
    </contour>
    <contour>
      <point x="840" y="0" type="line"/>
      <point x="622" y="333" type="line"/>
      <point x="555" y="289" type="line"/>
      <point x="745" y="0" type="line"/>
    </contour>
    <component base="__swash_topleft" xOffset="-84"/>
  </outline>
</glyph>
<glyph name="S.swsh" format="2">
  <advance width="641"/>
  <anchor x="306" y="-100" name="bottomC"/>
  <anchor x="326" y="660" name="top"/>
  <anchor x="409" y="-100" name="ogonek"/>
  <anchor x="336" y="-100" name="bottom"/>
  <outline>
    <contour>
      <point x="585" y="108" type="curve" smooth="yes"/>
      <point x="585" y="213"/>
      <point x="526" y="266"/>
      <point x="353" y="312" type="curve" smooth="yes"/>
      <point x="209" y="350"/>
      <point x="163" y="389"/>
      <point x="163" y="459" type="curve" smooth="yes"/>
      <point x="163" y="545"/>
      <point x="224" y="595"/>
      <point x="331" y="595" type="curve" smooth="yes"/>
      <point x="442" y="595"/>
      <point x="489" y="554"/>
      <point x="493" y="451" type="curve"/>
      <point x="572" y="482" type="line"/>
      <point x="558" y="605"/>
      <point x="474" y="670"/>
      <point x="330" y="670" type="curve" smooth="yes"/>
      <point x="177" y="670"/>
      <point x="79" y="584"/>
      <point x="79" y="450" type="curve" smooth="yes"/>
      <point x="79" y="347"/>
      <point x="142" y="286"/>
      <point x="318" y="241" type="curve" smooth="yes"/>
      <point x="459" y="205"/>
      <point x="502" y="168"/>
      <point x="502" y="104" type="curve" smooth="yes"/>
      <point x="502" y="14"/>
      <point x="442" y="-35"/>
      <point x="329" y="-35" type="curve" smooth="yes"/>
      <point x="201" y="-35"/>
      <point x="141" y="7"/>
      <point x="141" y="97" type="curve" smooth="yes"/>
      <point x="141" y="109"/>
      <point x="142" y="122"/>
      <point x="144" y="136" type="curve"/>
      <point x="69" y="114" type="line"/>
      <point x="67" y="100"/>
      <point x="66" y="87"/>
      <point x="66" y="75" type="curve" smooth="yes"/>
      <point x="66" y="-44"/>
      <point x="159" y="-110"/>
      <point x="326" y="-110" type="curve" smooth="yes"/>
      <point x="482" y="-110"/>
      <point x="585" y="-23"/>
    </contour>
  </outline>
</glyph>
<glyph name="b.sc" format="2">
  <advance width="593"/>
  <anchor x="275" y="0" name="bottomC"/>
  <anchor x="293" y="560" name="top"/>
  <anchor x="320" y="0" name="ogonek"/>
  <anchor x="293" y="0" name="bottom"/>
  <outline>
    <contour>
      <point x="320" y="0" type="line" smooth="yes"/>
      <point x="459" y="0"/>
      <point x="535" y="59"/>
      <point x="535" y="154" type="curve" smooth="yes"/>
      <point x="535" y="217"/>
      <point x="496" y="276"/>
      <point x="418" y="283" type="curve"/>
      <point x="418" y="284" type="line"/>
      <point x="481" y="299"/>
      <point x="519" y="347"/>
      <point x="519" y="407" type="curve" smooth="yes"/>
      <point x="519" y="503"/>
      <point x="457" y="560"/>
      <point x="319" y="560" type="curve" smooth="yes"/>
      <point x="94" y="560" type="line"/>
      <point x="94" y="0" type="line"/>
    </contour>
    <contour>
      <point x="174" y="248" type="line"/>
      <point x="332" y="248" type="line" smooth="yes"/>
      <point x="413" y="248"/>
      <point x="455" y="217"/>
      <point x="455" y="158" type="curve" smooth="yes"/>
      <point x="455" y="99"/>
      <point x="413" y="68"/>
      <point x="332" y="68" type="curve" smooth="yes"/>
      <point x="174" y="68" type="line"/>
    </contour>
    <contour>
      <point x="174" y="492" type="line"/>
      <point x="325" y="492" type="line" smooth="yes"/>
      <point x="399" y="492"/>
      <point x="439" y="463"/>
      <point x="439" y="404" type="curve" smooth="yes"/>
      <point x="439" y="344"/>
      <point x="399" y="316"/>
      <point x="325" y="316" type="curve" smooth="yes"/>
      <point x="174" y="316" type="line"/>
    </contour>
  </outline>
</glyph>
<glyph name="c.sc" format="2">
  <advance width="614"/>
  <anchor x="333" y="0" name="bottomC"/>
  <anchor x="333" y="560" name="top"/>
  <anchor x="406" y="0" name="ogonek"/>
  <anchor x="333" y="0" name="bottom"/>
  <outline>
    <contour>
      <point x="501" y="177" type="line"/>
      <point x="486" y="99"/>
      <point x="432" y="61"/>
      <point x="328" y="61" type="curve" smooth="yes"/>
      <point x="220" y="61"/>
      <point x="140" y="142"/>
      <point x="140" y="280" type="curve" smooth="yes"/>
      <point x="140" y="418"/>
      <point x="218" y="499"/>
      <point x="332" y="499" type="curve" smooth="yes"/>
      <point x="425" y="499"/>
      <point x="472" y="462"/>
      <point x="492" y="382" type="curve"/>
      <point x="568" y="416" type="line"/>
      <point x="537" y="517"/>
      <point x="453" y="568"/>
      <point x="334" y="568" type="curve" smooth="yes"/>
      <point x="168" y="568"/>
      <point x="60" y="458"/>
      <point x="60" y="280" type="curve" smooth="yes"/>
      <point x="60" y="102"/>
      <point x="169" y="-8"/>
      <point x="331" y="-8" type="curve" smooth="yes"/>
      <point x="455" y="-8"/>
      <point x="551" y="46"/>
      <point x="578" y="151" type="curve"/>
    </contour>
  </outline>
</glyph>
<glyph name="caroncmb.asc" format="2">
  <anchor x="0" y="730" name="_top"/>
  <outline>
    <contour>
      <point x="62" y="930" type="line"/>
      <point x="0" y="849" type="line"/>
      <point x="-62" y="930" type="line"/>
      <point x="-133" y="930" type="line"/>
      <point x="-50" y="800" type="line"/>
      <point x="50" y="800" type="line"/>
      <point x="133" y="930" type="line"/>
    </contour>
  </outline>
</glyph>
<glyph name="caroncmb.cap" format="2">
  <anchor x="0" y="660" name="_top"/>
  <outline>
    <contour>
      <point x="80" y="902" type="line"/>
      <point x="0" y="795" type="line"/>
      <point x="-80" y="902" type="line"/>
      <point x="-154" y="902" type="line"/>
      <point x="-44" y="743" type="line"/>
      <point x="44" y="743" type="line"/>
      <point x="154" y="902" type="line"/>
    </contour>
  </outline>
</glyph>
<glyph name="commasuperior" format="2">
  <advance width="186"/>
  <outline>
    <contour>
      <point x="48" y="373" type="curve" smooth="yes"/>
      <point x="48" y="343"/>
      <point x="70" y="327"/>
      <point x="90" y="327" type="curve" smooth="yes"/>
      <point x="98" y="327"/>
      <point x="101" y="329"/>
      <point x="103" y="331" type="curve"/>
      <point x="106" y="330" type="line"/>
      <point x="106" y="304"/>
      <point x="77" y="272"/>
      <point x="42" y="259" type="curve"/>
      <point x="71" y="232" type="line"/>
      <point x="124" y="257"/>
      <point x="147" y="303"/>
      <point x="147" y="350" type="curve" smooth="yes"/>
      <point x="147" y="389"/>
      <point x="127" y="417"/>
      <point x="94" y="417" type="curve" smooth="yes"/>
      <point x="65" y="417"/>
      <point x="48" y="399"/>
    </contour>
  </outline>
</glyph>
<glyph name="dcroat.sc" format="2">
  <advance width="664"/>
  <anchor x="302" y="0" name="bottomC"/>
  <anchor x="312" y="560" name="top"/>
  <anchor x="313" y="0" name="ogonek"/>
  <anchor x="316" y="243" name="center"/>
  <anchor x="312" y="0" name="bottom"/>
  <outline>
    <contour>
      <point x="24" y="311" type="line"/>
      <point x="24" y="253" type="line"/>
      <point x="356" y="253" type="line"/>
      <point x="356" y="311" type="line"/>
    </contour>
    <component base="d.sc" xOffset="19"/>
  </outline>
</glyph>
<glyph name="e.sc" format="2">
  <advance width="572"/>
  <anchor x="304" y="0" name="bottomC"/>
  <anchor x="298" y="560" name="top"/>
  <anchor x="527" y="0" name="ogonek"/>
  <anchor x="304" y="0" name="bottom"/>
  <outline>
    <contour>
      <point x="94" y="560" type="line"/>
      <point x="94" y="0" type="line"/>
      <point x="174" y="0" type="line"/>
      <point x="174" y="560" type="line"/>
    </contour>
    <contour>
      <point x="135" y="69" type="line"/>
      <point x="135" y="0" type="line"/>
      <point x="527" y="0" type="line"/>
      <point x="527" y="69" type="line"/>
    </contour>
    <contour>
      <point x="135" y="318" type="line"/>
      <point x="135" y="249" type="line"/>
      <point x="440" y="249" type="line"/>
      <point x="440" y="318" type="line"/>
    </contour>
    <contour>
      <point x="135" y="560" type="line"/>
      <point x="135" y="491" type="line"/>
      <point x="514" y="491" type="line"/>
      <point x="514" y="560" type="line"/>
    </contour>
  </outline>
</glyph>
<glyph name="emdashsuperior" format="2">
  <advance width="662"/>
  <outline>
    <contour>
      <point x="54" y="554" type="line"/>
      <point x="54" y="505" type="line"/>
      <point x="609" y="505" type="line"/>
      <point x="609" y="554" type="line"/>
    </contour>
  </outline>
</glyph>
<glyph name="f_idieresis" format="2">
  <advance width="689"/>
  <outline>
    <contour>
      <point x="212" y="0" type="line"/>
      <point x="212" y="474" type="line"/>
      <point x="212" y="487" type="line"/>
      <point x="212" y="517"/>
      <point x="212" y="546"/>
      <point x="212" y="576" type="curve" smooth="yes"/>
      <point x="212" y="636"/>
      <point x="245" y="662"/>
      <point x="303" y="662" type="curve" smooth="yes"/>
      <point x="326" y="662"/>
      <point x="344" y="657"/>
      <point x="360" y="647" type="curve"/>
      <point x="381" y="712" type="line"/>
      <point x="363" y="727"/>
      <point x="331" y="735"/>
      <point x="296" y="735" type="curve" smooth="yes"/>
      <point x="186" y="735"/>
      <point x="132" y="673"/>
      <point x="132" y="584" type="curve" smooth="yes"/>
      <point x="132" y="551"/>
      <point x="132" y="518"/>
      <point x="132" y="485" type="curve"/>
      <point x="132" y="470" type="line"/>
      <point x="132" y="0" type="line"/>
    </contour>
    <contour>
      <point x="379" y="431" type="line"/>
      <point x="379" y="500" type="line"/>
      <point x="32" y="500" type="line"/>
      <point x="32" y="431" type="line"/>
    </contour>
    <contour>
      <point x="596" y="0" type="line"/>
      <point x="596" y="500" type="line"/>
      <point x="516" y="500" type="line"/>
      <point x="516" y="0" type="line"/>
    </contour>
    <contour>
      <point x="534" y="639" type="curve" smooth="yes"/>
      <point x="534" y="673"/>
      <point x="511" y="696"/>
      <point x="476" y="696" type="curve" smooth="yes"/>
      <point x="442" y="696"/>
      <point x="419" y="673"/>
      <point x="419" y="639" type="curve" smooth="yes"/>
      <point x="419" y="605"/>
      <point x="442" y="582"/>
      <point x="476" y="582" type="curve" smooth="yes"/>
      <point x="511" y="582"/>
      <point x="534" y="605"/>
    </contour>
    <contour>
      <point x="693" y="639" type="curve" smooth="yes"/>
      <point x="693" y="673"/>
      <point x="670" y="696"/>
      <point x="636" y="696" type="curve" smooth="yes"/>
      <point x="601" y="696"/>
      <point x="578" y="673"/>
      <point x="578" y="639" type="curve" smooth="yes"/>
      <point x="578" y="605"/>
      <point x="601" y="582"/>
      <point x="636" y="582" type="curve" smooth="yes"/>
      <point x="670" y="582"/>
      <point x="693" y="605"/>
    </contour>
  </outline>
</glyph>
<glyph name="four.sc" format="2">
  <advance width="545"/>
  <outline>
    <contour>
      <point x="409" y="0" type="line"/>
      <point x="409" y="141" type="line"/>
      <point x="513" y="141" type="line"/>
      <point x="513" y="207" type="line"/>
      <point x="409" y="207" type="line"/>
      <point x="409" y="560" type="line"/>
      <point x="307" y="560" type="line"/>
      <point x="41" y="194" type="line"/>
      <point x="41" y="141" type="line"/>
      <point x="332" y="141" type="line"/>
      <point x="332" y="0" type="line"/>
    </contour>
    <contour>
      <point x="278" y="413" type="line" smooth="yes"/>
      <point x="293" y="434"/>
      <point x="315" y="467"/>
      <point x="329" y="492" type="curve"/>
      <point x="332" y="492" type="line"/>
      <point x="332" y="207" type="line"/>
      <point x="127" y="207" type="line"/>
    </contour>
  </outline>
</glyph>
<glyph name="g.ss01" format="2">
  <advance width="630"/>
  <anchor x="295" y="-210" name="bottomC"/>
  <anchor x="287" y="500" name="top"/>
  <anchor x="407" y="-193" name="ogonek"/>
  <anchor x="308" y="-210" name="bottom"/>
  <outline>
    <contour>
      <point x="471" y="500" type="line"/>
      <point x="456" y="383" type="line"/>
      <point x="456" y="362" type="line"/>
      <point x="456" y="21" type="line" smooth="yes"/>
      <point x="456" y="-77"/>
      <point x="389" y="-145"/>
      <point x="295" y="-145" type="curve" smooth="yes"/>
      <point x="210" y="-145"/>
      <point x="166" y="-116"/>
      <point x="154" y="-59" type="curve"/>
      <point x="78" y="-92" type="line"/>
      <point x="96" y="-177"/>
      <point x="181" y="-215"/>
      <point x="283" y="-215" type="curve" smooth="yes"/>
      <point x="450" y="-215"/>
      <point x="537" y="-132"/>
      <point x="537" y="40" type="curve" smooth="yes"/>
      <point x="537" y="383" type="line"/>
      <point x="537" y="500" type="line"/>
    </contour>
    <contour>
      <point x="62" y="255" type="curve" smooth="yes"/>
      <point x="62" y="95"/>
      <point x="151" y="0"/>
      <point x="290" y="0" type="curve" smooth="yes"/>
      <point x="407" y="0"/>
      <point x="485" y="77"/>
      <point x="485" y="170" type="curve"/>
      <point x="456" y="249" type="line"/>
      <point x="456" y="139"/>
      <point x="394" y="70"/>
      <point x="299" y="70" type="curve" smooth="yes"/>
      <point x="201" y="70"/>
      <point x="142" y="142"/>
      <point x="142" y="255" type="curve" smooth="yes"/>
      <point x="142" y="368"/>
      <point x="201" y="440"/>
      <point x="299" y="440" type="curve" smooth="yes"/>
      <point x="394" y="440"/>
      <point x="456" y="371"/>
      <point x="456" y="261" type="curve"/>
      <point x="485" y="340" type="line"/>
      <point x="485" y="434"/>
      <point x="407" y="510"/>
      <point x="290" y="510" type="curve" smooth="yes"/>
      <point x="151" y="510"/>
      <point x="62" y="415"/>
    </contour>
  </outline>
</glyph>
<glyph name="iacute_j.loclNLD" format="2">
  <advance width="532"/>
  <anchor x="133" y="0" name="bottomC"/>
  <anchor x="133" y="500" name="top"/>
  <anchor x="173" y="0" name="ogonek"/>
  <anchor x="133" y="0" name="bottom"/>
  <outline>
    <contour>
      <point x="359" y="500" type="line"/>
      <point x="359" y="-43" type="line" smooth="yes"/>
      <point x="359" y="-113"/>
      <point x="329" y="-137"/>
      <point x="286" y="-137" type="curve" smooth="yes"/>
      <point x="251" y="-137"/>
      <point x="223" y="-123"/>
      <point x="204" y="-106" type="curve"/>
      <point x="187" y="-182" type="line"/>
      <point x="210" y="-201"/>
      <point x="246" y="-215"/>
      <point x="287" y="-215" type="curve" smooth="yes"/>
      <point x="355" y="-215"/>
      <point x="439" y="-176"/>
      <point x="439" y="-51" type="curve" smooth="yes"/>
      <point x="439" y="500" type="line"/>
    </contour>
    <component base="iacute"/>
    <component base="acute" xOffset="150"/>
  </outline>
</glyph>
<glyph name="ij.sc.ss05" format="2">
  <advance width="565"/>
  <outline>
    <contour>
      <point x="87" y="560" type="line"/>
      <point x="87" y="242" type="line"/>
      <point x="167" y="242" type="line"/>
      <point x="167" y="560" type="line"/>
    </contour>
    <contour>
      <point x="398" y="560" type="line"/>
      <point x="398" y="208" type="line" smooth="yes"/>
      <point x="398" y="112"/>
      <point x="354" y="61"/>
      <point x="277" y="61" type="curve" smooth="yes"/>
      <point x="200" y="61"/>
      <point x="159" y="95"/>
      <point x="167" y="166" type="curve"/>
      <point x="88" y="166" type="line"/>
      <point x="75" y="54"/>
      <point x="135" y="-8"/>
      <point x="276" y="-8" type="curve" smooth="yes"/>
      <point x="400" y="-8"/>
      <point x="478" y="68"/>
      <point x="478" y="196" type="curve" smooth="yes"/>
      <point x="478" y="560" type="line"/>
    </contour>
  </outline>
</glyph>
<glyph name="iogonek_j" format="2">
  <advance width="532"/>
  <anchor x="173" y="0" name="ogonek_1"/>
  <anchor x="358" y="-204" name="ogonek_2"/>
  <anchor x="133" y="0" name="bottomC_1"/>
  <anchor x="339" y="-210" name="bottomC_2"/>
  <anchor x="133" y="0" name="bottom_1"/>
  <anchor x="339" y="-210" name="bottom_2"/>
  <anchor x="133" y="706" name="top_1"/>
  <anchor x="399" y="706" name="top_2"/>
  <outline>
    <contour>
      <point x="199" y="-190" type="curve"/>
      <point x="188" y="-137" type="line"/>
      <point x="171" y="-151"/>
      <point x="151" y="-158"/>
      <point x="124" y="-158" type="curve" smooth="yes"/>
      <point x="90" y="-158"/>
      <point x="70" y="-143"/>
      <point x="70" y="-110" type="curve" smooth="yes"/>
      <point x="70" y="-72"/>
      <point x="90" y="-44"/>
      <point x="173" y="0" type="curve"/>
      <point x="121" y="17" type="line"/>
      <point x="36" y="-25"/>
      <point x="8" y="-63"/>
      <point x="8" y="-123" type="curve" smooth="yes"/>
      <point x="8" y="-178"/>
      <point x="42" y="-215"/>
      <point x="114" y="-215" type="curve" smooth="yes"/>
      <point x="151" y="-215"/>
      <point x="177" y="-205"/>
    </contour>
    <component base="i"/>
    <component base="j.ogonek" xOffset="219"/>
  </outline>
</glyph>
<glyph name="j_j.liga" format="2">
  <advance width="532"/>
  <outline>
    <contour>
      <point x="93" y="500" type="line"/>
      <point x="93" y="-43" type="line" smooth="yes"/>
      <point x="93" y="-113"/>
      <point x="63" y="-137"/>
      <point x="20" y="-137" type="curve" smooth="yes"/>
      <point x="-15" y="-137"/>
      <point x="-43" y="-123"/>
      <point x="-62" y="-106" type="curve"/>
      <point x="-79" y="-182" type="line"/>
      <point x="-56" y="-201"/>
      <point x="-20" y="-215"/>
      <point x="21" y="-215" type="curve" smooth="yes"/>
      <point x="89" y="-215"/>
      <point x="173" y="-176"/>
      <point x="173" y="-51" type="curve" smooth="yes"/>
      <point x="173" y="500" type="line"/>
    </contour>
    <contour>
      <point x="359" y="500" type="line"/>
      <point x="359" y="-43" type="line" smooth="yes"/>
      <point x="359" y="-113"/>
      <point x="329" y="-137"/>
      <point x="286" y="-137" type="curve" smooth="yes"/>
      <point x="251" y="-137"/>
      <point x="223" y="-123"/>
      <point x="204" y="-106" type="curve"/>
      <point x="187" y="-182" type="line"/>
      <point x="210" y="-201"/>
      <point x="246" y="-215"/>
      <point x="287" y="-215" type="curve" smooth="yes"/>
      <point x="355" y="-215"/>
      <point x="439" y="-176"/>
      <point x="439" y="-51" type="curve" smooth="yes"/>
      <point x="439" y="500" type="line"/>
    </contour>
    <contour>
      <point x="73" y="656" type="curve" smooth="yes"/>
      <point x="73" y="623"/>
      <point x="100" y="596"/>
      <point x="133" y="596" type="curve" smooth="yes"/>
      <point x="166" y="596"/>
      <point x="193" y="623"/>
      <point x="193" y="656" type="curve" smooth="yes"/>
      <point x="193" y="689"/>
      <point x="166" y="716"/>
      <point x="133" y="716" type="curve" smooth="yes"/>
      <point x="100" y="716"/>
      <point x="73" y="689"/>
    </contour>
    <contour>
      <point x="339" y="656" type="curve" smooth="yes"/>
      <point x="339" y="623"/>
      <point x="366" y="596"/>
      <point x="399" y="596" type="curve" smooth="yes"/>
      <point x="432" y="596"/>
      <point x="459" y="623"/>
      <point x="459" y="656" type="curve" smooth="yes"/>
      <point x="459" y="689"/>
      <point x="432" y="716"/>
      <point x="399" y="716" type="curve" smooth="yes"/>
      <point x="366" y="716"/>
      <point x="339" y="689"/>
    </contour>
  </outline>
</glyph>
<glyph name="l.ss02" format="2">
  <advance width="270"/>
  <anchor x="135" y="0" name="bottomC"/>
  <anchor x="135" y="730" name="top"/>
  <anchor x="175" y="0" name="ogonek"/>
  <anchor x="255" y="730" name="topright"/>
  <anchor x="135" y="0" name="bottom"/>
  <outline>
    <contour>
      <point x="95" y="730" type="line"/>
      <point x="95" y="0" type="line"/>
      <point x="175" y="0" type="line"/>
      <point x="175" y="730" type="line"/>
    </contour>
  </outline>
</glyph>
<glyph name="n.sc" format="2">
  <advance width="661"/>
  <anchor x="523" y="0" name="bottomC"/>
  <anchor x="334" y="560" name="top"/>
  <anchor x="567" y="0" name="ogonek"/>
  <anchor x="352" y="0" name="bottom"/>
  <outline>
    <contour>
      <point x="490" y="560" type="line"/>
      <point x="490" y="153" type="line"/>
      <point x="494" y="83" type="line"/>
      <point x="493" y="83" type="line"/>
      <point x="445" y="167" type="line"/>
      <point x="201" y="560" type="line"/>
      <point x="94" y="560" type="line"/>
      <point x="94" y="0" type="line"/>
      <point x="171" y="0" type="line"/>
      <point x="171" y="407" type="line"/>
      <point x="167" y="477" type="line"/>
      <point x="168" y="477" type="line"/>
      <point x="216" y="392" type="line"/>
      <point x="460" y="0" type="line"/>
      <point x="567" y="0" type="line"/>
      <point x="567" y="560" type="line"/>
    </contour>
  </outline>
</glyph>
<glyph name="nine.osf" format="2">
  <advance width="613"/>
  <outline>
    <contour>
      <point x="70" y="356" type="curve" smooth="yes"/>
      <point x="70" y="225"/>
      <point x="158" y="142"/>
      <point x="291" y="142" type="curve" smooth="yes"/>
      <point x="374" y="142"/>
      <point x="456" y="180"/>
      <point x="474" y="272" type="curve"/>
      <point x="478" y="272" type="line"/>
      <point x="479" y="255"/>
      <point x="479" y="242"/>
      <point x="479" y="230" type="curve" smooth="yes"/>
      <point x="479" y="63"/>
      <point x="409" y="-42"/>
      <point x="297" y="-42" type="curve" smooth="yes"/>
      <point x="199" y="-42"/>
      <point x="158" y="5"/>
      <point x="142" y="78" type="curve"/>
      <point x="69" y="39" type="line"/>
      <point x="107" y="-58"/>
      <point x="176" y="-110"/>
      <point x="298" y="-110" type="curve" smooth="yes"/>
      <point x="464" y="-110"/>
      <point x="552" y="27"/>
      <point x="552" y="230" type="curve" smooth="yes"/>
      <point x="552" y="430"/>
      <point x="463" y="570"/>
      <point x="297" y="570" type="curve" smooth="yes"/>
      <point x="158" y="570"/>
      <point x="70" y="487"/>
    </contour>
    <contour>
      <point x="444" y="355" type="curve" smooth="yes"/>
      <point x="444" y="270"/>
      <point x="385" y="210"/>
      <point x="298" y="210" type="curve" smooth="yes"/>
      <point x="204" y="210"/>
      <point x="150" y="265"/>
      <point x="150" y="355" type="curve" smooth="yes"/>
      <point x="150" y="448"/>
      <point x="204" y="502"/>
      <point x="298" y="502" type="curve" smooth="yes"/>
      <point x="385" y="502"/>
      <point x="444" y="443"/>
    </contour>
  </outline>
</glyph>
<glyph name="nine.tf" format="2">
  <advance width="604"/>
  <outline>
    <contour>
      <point x="57" y="456" type="curve" smooth="yes"/>
      <point x="57" y="325"/>
      <point x="145" y="242"/>
      <point x="278" y="242" type="curve" smooth="yes"/>
      <point x="352" y="242"/>
      <point x="441" y="270"/>
      <point x="462" y="366" type="curve"/>
      <point x="466" y="366" type="line"/>
      <point x="466" y="363"/>
      <point x="466" y="360"/>
      <point x="466" y="357" type="curve" smooth="yes"/>
      <point x="466" y="180"/>
      <point x="422" y="65"/>
      <point x="284" y="65" type="curve" smooth="yes"/>
      <point x="186" y="65"/>
      <point x="156" y="112"/>
      <point x="135" y="181" type="curve"/>
      <point x="56" y="139" type="line"/>
      <point x="94" y="42"/>
      <point x="163" y="-10"/>
      <point x="285" y="-10" type="curve" smooth="yes"/>
      <point x="451" y="-10"/>
      <point x="539" y="109"/>
      <point x="539" y="330" type="curve" smooth="yes"/>
      <point x="539" y="530"/>
      <point x="450" y="670"/>
      <point x="284" y="670" type="curve" smooth="yes"/>
      <point x="145" y="670"/>
      <point x="57" y="587"/>
    </contour>
    <contour>
      <point x="429" y="455" type="curve" smooth="yes"/>
      <point x="429" y="375"/>
      <point x="371" y="319"/>
      <point x="285" y="319" type="curve" smooth="yes"/>
      <point x="194" y="319"/>
      <point x="141" y="371"/>
      <point x="141" y="455" type="curve" smooth="yes"/>
      <point x="141" y="542"/>
      <point x="194" y="593"/>
      <point x="285" y="593" type="curve" smooth="yes"/>
      <point x="371" y="593"/>
      <point x="429" y="538"/>
    </contour>
  </outline>
</glyph>
<glyph name="oe.sc" format="2">
  <advance width="966"/>
  <anchor x="554" y="560" name="top"/>
  <anchor x="554" y="0" name="bottom"/>
  <outline>
    <contour>
      <point x="580" y="280" type="curve"/>
      <point x="580" y="454"/>
      <point x="496" y="568"/>
      <point x="333" y="568" type="curve" smooth="yes"/>
      <point x="162" y="568"/>
      <point x="60" y="458"/>
      <point x="60" y="280" type="curve" smooth="yes"/>
      <point x="60" y="102"/>
      <point x="164" y="-8"/>
      <point x="330" y="-8" type="curve" smooth="yes"/>
      <point x="493" y="-8"/>
      <point x="580" y="106"/>
    </contour>
    <contour>
      <point x="140" y="280" type="curve" smooth="yes"/>
      <point x="140" y="418"/>
      <point x="213" y="499"/>
      <point x="335" y="499" type="curve" smooth="yes"/>
      <point x="446" y="499"/>
      <point x="516" y="419"/>
      <point x="516" y="280" type="curve" smooth="yes"/>
      <point x="516" y="140"/>
      <point x="446" y="61"/>
      <point x="335" y="61" type="curve" smooth="yes"/>
      <point x="213" y="61"/>
      <point x="140" y="142"/>
    </contour>
    <contour>
      <point x="921" y="0" type="line"/>
      <point x="921" y="69" type="line"/>
      <point x="557" y="69" type="line"/>
      <point x="557" y="0" type="line"/>
    </contour>
    <contour>
      <point x="591" y="0" type="line"/>
      <point x="591" y="560" type="line"/>
      <point x="524" y="560" type="line"/>
      <point x="524" y="0" type="line"/>
    </contour>
    <contour>
      <point x="835" y="249" type="line"/>
      <point x="835" y="318" type="line"/>
      <point x="557" y="318" type="line"/>
      <point x="557" y="249" type="line"/>
    </contour>
    <contour>
      <point x="907" y="491" type="line"/>
      <point x="907" y="560" type="line"/>
      <point x="557" y="560" type="line"/>
      <point x="557" y="491" type="line"/>
    </contour>
  </outline>
</glyph>
<glyph name="one.sc" format="2">
  <advance width="368"/>
  <outline>
    <contour>
      <point x="276" y="560" type="line"/>
      <point x="206" y="560" type="line"/>
      <point x="200" y="509"/>
      <point x="196" y="436"/>
      <point x="196" y="385" type="curve" smooth="yes"/>
      <point x="196" y="0" type="line"/>
      <point x="276" y="0" type="line"/>
      <point x="276" y="406" type="line"/>
    </contour>
    <contour>
      <point x="251" y="534" type="curve"/>
      <point x="206" y="560" type="line"/>
      <point x="169" y="509"/>
      <point x="63" y="457"/>
      <point x="16" y="451" type="curve"/>
      <point x="35" y="381" type="line"/>
      <point x="126" y="403"/>
      <point x="216" y="455"/>
    </contour>
  </outline>
</glyph>
<glyph name="one.tf" format="2">
  <advance width="604"/>
  <outline>
    <contour>
      <point x="387" y="0" type="line"/>
      <point x="387" y="506" type="line"/>
      <point x="387" y="660" type="line"/>
      <point x="317" y="660" type="line"/>
      <point x="311" y="609"/>
      <point x="307" y="537"/>
      <point x="307" y="486" type="curve" smooth="yes"/>
      <point x="307" y="0" type="line"/>
    </contour>
    <contour>
      <point x="566" y="0" type="line"/>
      <point x="566" y="72" type="line"/>
      <point x="108" y="72" type="line"/>
      <point x="108" y="0" type="line"/>
    </contour>
    <contour>
      <point x="362" y="634" type="curve"/>
      <point x="317" y="660" type="line"/>
      <point x="280" y="609"/>
      <point x="144" y="547"/>
      <point x="97" y="541" type="curve"/>
      <point x="118" y="468" type="line"/>
      <point x="211" y="490"/>
      <point x="327" y="555"/>
    </contour>
  </outline>
</glyph>
<glyph name="q.sc" format="2">
  <advance width="672"/>
  <anchor x="470" y="-162" name="bottomC"/>
  <anchor x="336" y="560" name="top"/>
  <anchor x="518" y="-162" name="ogonek"/>
  <anchor x="336" y="-210" name="bottom"/>
  <outline>
    <contour>
      <point x="299" y="15" type="line"/>
      <point x="295" y="-116"/>
      <point x="373" y="-166"/>
      <point x="475" y="-167" type="curve" smooth="yes"/>
      <point x="523" y="-168"/>
      <point x="578" y="-153"/>
      <point x="606" y="-130" type="curve"/>
      <point x="582" y="-62" type="line"/>
      <point x="559" y="-82"/>
      <point x="521" y="-98"/>
      <point x="477" y="-98" type="curve" smooth="yes"/>
      <point x="410" y="-98"/>
      <point x="358" y="-73"/>
      <point x="364" y="27" type="curve"/>
    </contour>
    <component base="o.sc"/>
  </outline>
</glyph>
<glyph name="question.sc" format="2">
  <advance width="472"/>
  <outline>
    <contour>
      <point x="26" y="423" type="curve"/>
      <point x="99" y="387" type="line"/>
      <point x="107" y="456"/>
      <point x="156" y="498"/>
      <point x="234" y="498" type="curve" smooth="yes"/>
      <point x="314" y="498"/>
      <point x="354" y="464"/>
      <point x="354" y="411" type="curve" smooth="yes"/>
      <point x="354" y="348"/>
      <point x="308" y="317"/>
      <point x="190" y="299" type="curve"/>
      <point x="190" y="183" type="line"/>
      <point x="269" y="183" type="line"/>
      <point x="269" y="261" type="line"/>
      <point x="366" y="273"/>
      <point x="439" y="321"/>
      <point x="439" y="422" type="curve" smooth="yes"/>
      <point x="439" y="515"/>
      <point x="356" y="568"/>
      <point x="240" y="568" type="curve" smooth="yes"/>
      <point x="118" y="568"/>
      <point x="44" y="509"/>
    </contour>
    <component base="period" xScale="0.94" yScale="0.92" xOffset="101"/>
  </outline>
</glyph>
<glyph name="registeredsuperior" format="2">
  <advance width="573"/>
  <outline>
    <contour>
      <point x="548" y="412" type="curve" smooth="yes"/>
      <point x="548" y="566"/>
      <point x="443" y="670"/>
      <point x="286" y="670" type="curve" smooth="yes"/>
      <point x="130" y="670"/>
      <point x="25" y="566"/>
      <point x="25" y="412" type="curve" smooth="yes"/>
      <point x="25" y="257"/>
      <point x="130" y="153"/>
      <point x="286" y="153" type="curve" smooth="yes"/>
      <point x="443" y="153"/>
      <point x="548" y="257"/>
    </contour>
    <contour>
      <point x="246" y="278" type="line"/>
      <point x="246" y="548" type="line"/>
      <point x="187" y="548" type="line"/>
      <point x="187" y="278" type="line"/>
    </contour>
    <contour>
      <point x="413" y="278" type="line"/>
      <point x="330" y="404" type="line"/>
      <point x="279" y="389" type="line"/>
      <point x="346" y="278" type="line"/>
    </contour>
    <contour>
      <point x="89" y="412" type="curve" smooth="yes"/>
      <point x="89" y="531"/>
      <point x="168" y="611"/>
      <point x="286" y="611" type="curve" smooth="yes"/>
      <point x="405" y="611"/>
      <point x="484" y="531"/>
      <point x="484" y="412" type="curve" smooth="yes"/>
      <point x="484" y="293"/>
      <point x="405" y="213"/>
      <point x="286" y="213" type="curve" smooth="yes"/>
      <point x="168" y="213"/>
      <point x="89" y="293"/>
    </contour>
    <contour>
      <point x="305" y="377" type="line" smooth="yes"/>
      <point x="367" y="377"/>
      <point x="406" y="408"/>
      <point x="406" y="462" type="curve" smooth="yes"/>
      <point x="406" y="515"/>
      <point x="367" y="548"/>
      <point x="309" y="548" type="curve" smooth="yes"/>
      <point x="221" y="548" type="line"/>
      <point x="221" y="501" type="line"/>
      <point x="299" y="501" type="line" smooth="yes"/>
      <point x="330" y="501"/>
      <point x="347" y="488"/>
      <point x="347" y="460" type="curve" smooth="yes"/>
      <point x="347" y="431"/>
      <point x="330" y="418"/>
      <point x="299" y="418" type="curve" smooth="yes"/>
      <point x="221" y="418" type="line"/>
      <point x="221" y="377" type="line"/>
    </contour>
  </outline>
</glyph>
<glyph name="s.sc" format="2">
  <advance width="577"/>
  <anchor x="294" y="0" name="bottomC"/>
  <anchor x="293" y="560" name="top"/>
  <anchor x="371" y="0" name="ogonek"/>
  <anchor x="319" y="0" name="bottom"/>
  <outline>
    <contour>
      <point x="65" y="400" type="curve" smooth="yes"/>
      <point x="65" y="185"/>
      <point x="445" y="287"/>
      <point x="445" y="148" type="curve" smooth="yes"/>
      <point x="445" y="92"/>
      <point x="384" y="61"/>
      <point x="295" y="61" type="curve" smooth="yes"/>
      <point x="198" y="61"/>
      <point x="134" y="99"/>
      <point x="103" y="165" type="curve"/>
      <point x="43" y="110" type="line"/>
      <point x="85" y="40"/>
      <point x="167" y="-8"/>
      <point x="295" y="-8" type="curve" smooth="yes"/>
      <point x="432" y="-8"/>
      <point x="525" y="54"/>
      <point x="525" y="152" type="curve" smooth="yes"/>
      <point x="525" y="368"/>
      <point x="145" y="265"/>
      <point x="145" y="408" type="curve" smooth="yes"/>
      <point x="145" y="459"/>
      <point x="200" y="499"/>
      <point x="291" y="499" type="curve" smooth="yes"/>
      <point x="378" y="499"/>
      <point x="425" y="470"/>
      <point x="461" y="398" type="curve"/>
      <point x="521" y="452" type="line"/>
      <point x="473" y="530"/>
      <point x="399" y="568"/>
      <point x="290" y="568" type="curve" smooth="yes"/>
      <point x="149" y="568"/>
      <point x="65" y="492"/>
    </contour>
  </outline>
</glyph>
<glyph name="seven.tf" format="2">
  <advance width="604"/>
  <outline>
    <contour>
      <point x="52" y="585" type="line"/>
      <point x="507" y="585" type="line"/>
      <point x="495" y="605" type="line"/>
      <point x="321" y="436"/>
      <point x="227" y="222"/>
      <point x="227" y="0" type="curve"/>
      <point x="309" y="0" type="line"/>
      <point x="309" y="223"/>
      <point x="391" y="410"/>
      <point x="563" y="585" type="curve"/>
      <point x="563" y="660" type="line"/>
      <point x="52" y="660" type="line"/>
    </contour>
  </outline>
</glyph>
<glyph name="three.sc" format="2">
  <advance width="524"/>
  <outline>
    <contour>
      <point x="66" y="443" type="curve"/>
      <point x="140" y="413" type="line"/>
      <point x="153" y="467"/>
      <point x="193" y="499"/>
      <point x="261" y="499" type="curve" smooth="yes"/>
      <point x="330" y="499"/>
      <point x="370" y="466"/>
      <point x="369" y="404" type="curve" smooth="yes"/>
      <point x="368" y="345"/>
      <point x="327" y="314"/>
      <point x="251" y="314" type="curve" smooth="yes"/>
      <point x="225" y="314" type="line"/>
      <point x="225" y="249" type="line"/>
      <point x="253" y="249" type="line" smooth="yes"/>
      <point x="339" y="249"/>
      <point x="382" y="224"/>
      <point x="382" y="161" type="curve" smooth="yes"/>
      <point x="382" y="100"/>
      <point x="336" y="61"/>
      <point x="257" y="61" type="curve" smooth="yes"/>
      <point x="174" y="61"/>
      <point x="138" y="98"/>
      <point x="122" y="163" type="curve"/>
      <point x="46" y="126" type="line"/>
      <point x="80" y="37"/>
      <point x="149" y="-8"/>
      <point x="254" y="-8" type="curve" smooth="yes"/>
      <point x="378" y="-8"/>
      <point x="462" y="58"/>
      <point x="462" y="163" type="curve" smooth="yes"/>
      <point x="462" y="238"/>
      <point x="409" y="281"/>
      <point x="338" y="282" type="curve"/>
      <point x="338" y="283" type="line"/>
      <point x="394" y="285"/>
      <point x="449" y="338"/>
      <point x="449" y="420" type="curve" smooth="yes"/>
      <point x="449" y="502"/>
      <point x="383" y="568"/>
      <point x="262" y="568" type="curve" smooth="yes"/>
      <point x="168" y="568"/>
      <point x="93" y="523"/>
    </contour>
  </outline>
</glyph>
<glyph name="u.sc" format="2">
  <advance width="647"/>
  <anchor x="324" y="0" name="bottomC"/>
  <anchor x="323" y="560" name="top"/>
  <anchor x="430" y="12" name="ogonek"/>
  <anchor x="324" y="0" name="bottom"/>
  <outline>
    <contour>
      <point x="480" y="560" type="line"/>
      <point x="480" y="223" type="line" smooth="yes"/>
      <point x="480" y="113"/>
      <point x="429" y="61"/>
      <point x="323" y="61" type="curve" smooth="yes"/>
      <point x="218" y="61"/>
      <point x="167" y="113"/>
      <point x="167" y="223" type="curve" smooth="yes"/>
      <point x="167" y="560" type="line"/>
      <point x="87" y="560" type="line"/>
      <point x="87" y="212" type="line" smooth="yes"/>
      <point x="87" y="66"/>
      <point x="171" y="-8"/>
      <point x="323" y="-8" type="curve" smooth="yes"/>
      <point x="476" y="-8"/>
      <point x="560" y="66"/>
      <point x="560" y="212" type="curve" smooth="yes"/>
      <point x="560" y="560" type="line"/>
    </contour>
  </outline>
</glyph>
<glyph name="udieresis.titl.sc" format="2">
  <advance width="646"/>
  <outline>
    <contour>
      <point x="447" y="515" type="curve" smooth="yes"/>
      <point x="447" y="545"/>
      <point x="426" y="565"/>
      <point x="395" y="565" type="curve" smooth="yes"/>
      <point x="364" y="565"/>
      <point x="343" y="545"/>
      <point x="343" y="515" type="curve" smooth="yes"/>
      <point x="343" y="486"/>
      <point x="364" y="466"/>
      <point x="395" y="466" type="curve" smooth="yes"/>
      <point x="426" y="466"/>
      <point x="447" y="486"/>
    </contour>
    <contour>
      <point x="313" y="515" type="curve" smooth="yes"/>
      <point x="313" y="545"/>
      <point x="292" y="565"/>
      <point x="261" y="565" type="curve" smooth="yes"/>
      <point x="229" y="565"/>
      <point x="208" y="545"/>
      <point x="208" y="515" type="curve" smooth="yes"/>
      <point x="208" y="486"/>
      <point x="229" y="466"/>
      <point x="261" y="466" type="curve" smooth="yes"/>
      <point x="292" y="466"/>
      <point x="313" y="486"/>
    </contour>
    <contour>
      <point x="484" y="560" type="line"/>
      <point x="484" y="223" type="line" smooth="yes"/>
      <point x="484" y="113"/>
      <point x="433" y="61"/>
      <point x="327" y="61" type="curve" smooth="yes"/>
      <point x="222" y="61"/>
      <point x="171" y="113"/>
      <point x="171" y="223" type="curve" smooth="yes"/>
      <point x="171" y="560" type="line"/>
      <point x="91" y="560" type="line"/>
      <point x="91" y="212" type="line" smooth="yes"/>
      <point x="91" y="66"/>
      <point x="175" y="-8"/>
      <point x="327" y="-8" type="curve" smooth="yes"/>
      <point x="480" y="-8"/>
      <point x="564" y="66"/>
      <point x="564" y="212" type="curve" smooth="yes"/>
      <point x="564" y="560" type="line"/>
    </contour>
  </outline>
</glyph>
<glyph name="uni0123.ss01" format="2">
  <advance width="630"/>
  <anchor x="287" y="500" name="top"/>
  <anchor x="407" y="-193" name="ogonek"/>
  <anchor x="308" y="-210" name="bottom"/>
  <anchor x="295" y="-210" name="bottomC"/>
  <outline>
    <contour>
      <point x="340" y="778" type="line"/>
      <point x="270" y="587" type="line"/>
      <point x="358" y="587" type="line"/>
      <point x="400" y="778" type="line"/>
    </contour>
    <component base="g.ss01"/>
  </outline>
</glyph>
<glyph name="uni20BD.tf" format="2">
  <advance width="604"/>
  <outline>
    <contour>
      <point x="165" y="660" type="line"/>
      <point x="165" y="587" type="line"/>
      <point x="341" y="587" type="line" smooth="yes"/>
      <point x="445" y="587"/>
      <point x="491" y="543"/>
      <point x="491" y="459" type="curve" smooth="yes"/>
      <point x="491" y="375"/>
      <point x="445" y="331"/>
      <point x="341" y="331" type="curve" smooth="yes"/>
      <point x="30" y="331" type="line"/>
      <point x="30" y="261" type="line"/>
      <point x="353" y="261" type="line" smooth="yes"/>
      <point x="486" y="261"/>
      <point x="575" y="338"/>
      <point x="575" y="459" type="curve" smooth="yes"/>
      <point x="575" y="583"/>
      <point x="486" y="660"/>
      <point x="353" y="660" type="curve" smooth="yes"/>
    </contour>
    <contour>
      <point x="125" y="660" type="line"/>
      <point x="125" y="0" type="line"/>
      <point x="200" y="0" type="line"/>
      <point x="200" y="660" type="line"/>
    </contour>
    <contour>
      <point x="373" y="191" type="line"/>
      <point x="30" y="191" type="line"/>
      <point x="30" y="128" type="line"/>
      <point x="373" y="128" type="line"/>
    </contour>
  </outline>
</glyph>
<glyph name="whiteSmallSquare.case" format="2">
  <advance width="780"/>
  <outline>
    <contour>
      <point x="718" y="0" type="line"/>
      <point x="718" y="660" type="line"/>
      <point x="62" y="660" type="line"/>
      <point x="62" y="0" type="line"/>
    </contour>
    <contour>
      <point x="142" y="591" type="line"/>
      <point x="638" y="591" type="line"/>
      <point x="638" y="69" type="line"/>
      <point x="142" y="69" type="line"/>
    </contour>
  </outline>
</glyph>
<glyph name="x.sc" format="2">
  <advance width="546"/>
  <anchor x="518" y="0" name="bottomC"/>
  <anchor x="273" y="560" name="top"/>
  <anchor x="518" y="0" name="ogonek"/>
  <anchor x="273" y="0" name="bottom"/>
  <outline>
    <contour>
      <point x="114" y="0" type="line"/>
      <point x="290" y="258" type="line"/>
      <point x="305" y="269" type="line"/>
      <point x="511" y="560" type="line"/>
      <point x="421" y="560" type="line"/>
      <point x="257" y="321" type="line"/>
      <point x="236" y="303" type="line"/>
      <point x="17" y="0" type="line"/>
    </contour>
    <contour>
      <point x="518" y="0" type="line"/>
      <point x="302" y="313" type="line"/>
      <point x="290" y="326" type="line"/>
      <point x="132" y="560" type="line"/>
      <point x="38" y="560" type="line"/>
      <point x="243" y="263" type="line"/>
      <point x="258" y="247" type="line"/>
      <point x="425" y="0" type="line"/>
    </contour>
  </outline>
</glyph>
<glyph name="zero.osf" format="2">
  <advance width="598"/>
  <outline>
    <contour>
      <point x="62" y="280" type="curve" smooth="yes"/>
      <point x="62" y="91"/>
      <point x="143" y="-10"/>
      <point x="299" y="-10" type="curve" smooth="yes"/>
      <point x="455" y="-10"/>
      <point x="536" y="91"/>
      <point x="536" y="280" type="curve" smooth="yes"/>
      <point x="536" y="469"/>
      <point x="455" y="570"/>
      <point x="299" y="570" type="curve" smooth="yes"/>
      <point x="143" y="570"/>
      <point x="62" y="469"/>
    </contour>
    <contour>
      <point x="456" y="280" type="curve" smooth="yes"/>
      <point x="456" y="134"/>
      <point x="401" y="58"/>
      <point x="299" y="58" type="curve" smooth="yes"/>
      <point x="197" y="58"/>
      <point x="142" y="134"/>
      <point x="142" y="280" type="curve" smooth="yes"/>
      <point x="142" y="426"/>
      <point x="197" y="502"/>
      <point x="299" y="502" type="curve" smooth="yes"/>
      <point x="401" y="502"/>
      <point x="456" y="426"/>
    </contour>
  </outline>
</glyph>
<glyph name="zero.tf" format="2">
  <advance width="604"/>
  <outline>
    <contour>
      <point x="548" y="330" type="curve" smooth="yes"/>
      <point x="548" y="551"/>
      <point x="462" y="670"/>
      <point x="302" y="670" type="curve" smooth="yes"/>
      <point x="142" y="670"/>
      <point x="56" y="551"/>
      <point x="56" y="330" type="curve" smooth="yes"/>
      <point x="56" y="109"/>
      <point x="142" y="-10"/>
      <point x="302" y="-10" type="curve" smooth="yes"/>
      <point x="462" y="-10"/>
      <point x="548" y="109"/>
    </contour>
    <contour>
      <point x="139" y="330" type="curve" smooth="yes"/>
      <point x="139" y="504"/>
      <point x="196" y="598"/>
      <point x="302" y="598" type="curve" smooth="yes"/>
      <point x="408" y="598"/>
      <point x="465" y="504"/>
      <point x="465" y="330" type="curve" smooth="yes"/>
      <point x="465" y="156"/>
      <point x="408" y="62"/>
      <point x="302" y="62" type="curve" smooth="yes"/>
      <point x="196" y="62"/>
      <point x="139" y="156"/>
    </contour>
  </outline>
</glyph>
